<?xml version="1.0" standalone="no"?>
<!DOCTYPE svg PUBLIC "-//W3C//DTD SVG 20010904//EN"
 "http://www.w3.org/TR/2001/REC-SVG-20010904/DTD/svg10.dtd">
<svg version="1.0" xmlns="http://www.w3.org/2000/svg"
 width="700.000000pt" height="700.000000pt" viewBox="0 0 700.000000 700.000000"
 preserveAspectRatio="xMidYMid meet">
<metadata>
Created by potrace 1.11, written by Peter Selinger 2001-2013
</metadata>
<g transform="translate(0.000000,700.000000) scale(0.100000,-0.100000)"
fill="#000000" stroke="none">
<path d="M1436 6883 c-1 -1 -18 -3 -39 -5 -20 -1 -37 -5 -37 -9 0 -4 -9 -5
-19 -2 -10 3 -29 -1 -41 -7 -12 -7 -20 -7 -16 -2 6 10 -5 7 -74 -16 -8 -3 -25
-5 -37 -5 -13 0 -23 -3 -23 -8 0 -4 -15 -11 -32 -14 -18 -4 -38 -11 -44 -17
-7 -5 -16 -8 -20 -7 -14 4 -184 -82 -184 -93 0 -5 -4 -7 -9 -4 -5 3 -14 -1
-21 -9 -7 -8 -19 -15 -26 -15 -8 0 -14 -4 -14 -10 0 -5 -6 -10 -14 -10 -8 0
-16 -4 -18 -9 -2 -5 -21 -20 -42 -35 -21 -14 -35 -26 -30 -26 5 0 -3 -8 -16
-17 -14 -10 -29 -17 -33 -15 -5 1 -6 -2 -2 -8 3 -6 -4 -14 -17 -19 -13 -6 -20
-10 -16 -10 4 -1 -12 -21 -35 -45 -23 -24 -50 -56 -61 -70 -10 -14 -22 -24
-26 -21 -4 3 -7 -3 -6 -13 0 -9 -5 -16 -12 -14 -8 1 -10 -2 -7 -8 4 -6 -3 -19
-14 -30 -16 -13 -18 -20 -9 -23 8 -4 7 -6 -4 -6 -10 -1 -18 -7 -18 -15 0 -8
-7 -22 -16 -30 -8 -9 -12 -21 -8 -27 4 -7 3 -9 -3 -6 -5 3 -15 -10 -22 -29 -7
-18 -17 -34 -22 -34 -6 0 -8 -4 -5 -9 7 -10 -16 -61 -27 -61 -5 0 -6 -4 -2 -9
3 -5 0 -22 -7 -38 -16 -38 -16 -37 -31 -27 -7 5 -4 1 6 -8 11 -11 14 -18 7
-18 -7 0 -10 -8 -7 -20 3 -11 1 -20 -5 -20 -6 0 -8 -7 -4 -15 3 -8 2 -15 -3
-15 -5 0 -8 -10 -7 -22 1 -17 -4 -22 -18 -20 -18 3 -18 3 -1 -14 17 -17 17
-18 -1 -25 -11 -4 -13 -8 -7 -8 8 -1 12 -13 10 -35 -2 -28 -4 -32 -16 -23 -12
10 -13 9 -7 -2 10 -16 14 -161 5 -161 -3 0 -5 -10 -3 -22 9 -69 10 -118 2
-118 -5 0 -6 5 -2 12 4 7 3 8 -5 4 -9 -6 -9 -11 -1 -21 12 -15 17 -145 6 -163
-4 -7 -1 -12 6 -13 7 0 3 -5 -9 -11 -24 -11 -37 -45 -18 -45 7 0 12 7 11 15
-1 8 4 17 9 19 17 5 12 -50 -5 -65 -8 -8 -9 -11 -3 -7 15 7 14 8 17 -172 1
-113 -4 -144 -17 -110 -3 7 -6 5 -6 -5 -1 -11 6 -18 17 -19 10 0 12 -3 4 -6
-6 -2 -9 -10 -5 -16 14 -23 9 -131 -7 -145 -8 -8 -9 -11 -2 -7 13 7 13 5 16
-117 0 -42 -3 -64 -9 -60 -5 3 -4 -2 4 -11 9 -12 10 -17 2 -17 -7 0 -9 -5 -6
-11 10 -16 12 -99 4 -136 -5 -22 -3 -33 5 -34 6 0 1 -5 -11 -11 -24 -11 -37
-45 -18 -45 7 0 12 7 11 15 0 8 4 17 9 19 17 5 12 -50 -5 -65 -8 -8 -9 -11 -3
-7 15 7 14 8 17 -172 1 -113 -4 -144 -17 -110 -3 7 -6 5 -6 -5 -1 -11 6 -18
17 -19 10 0 12 -3 4 -6 -6 -2 -9 -10 -5 -16 14 -23 9 -131 -7 -145 -8 -8 -9
-11 -3 -7 14 7 14 5 17 -117 0 -42 -3 -64 -9 -60 -5 3 -4 -2 4 -11 9 -12 10
-17 2 -17 -7 0 -9 -5 -6 -11 10 -16 12 -99 4 -136 -5 -22 -3 -33 5 -34 6 0 1
-5 -11 -11 -24 -11 -37 -45 -18 -45 7 0 12 7 11 15 -1 8 4 17 9 19 17 5 12
-50 -5 -65 -8 -8 -9 -11 -3 -7 15 7 14 8 17 -172 1 -113 -4 -144 -17 -110 -3
7 -6 5 -6 -5 -1 -11 6 -18 17 -19 10 0 12 -3 4 -6 -6 -2 -9 -10 -5 -16 14 -23
9 -131 -7 -145 -8 -8 -9 -11 -3 -7 14 7 14 5 17 -117 0 -42 -3 -64 -9 -60 -5
3 -4 -2 4 -11 9 -12 10 -17 2 -17 -7 0 -9 -5 -6 -11 10 -16 12 -99 4 -136 -5
-22 -3 -33 5 -34 6 0 1 -5 -11 -11 -24 -11 -37 -45 -18 -45 7 0 12 7 11 15 0
8 4 17 9 19 17 5 12 -50 -5 -65 -8 -8 -9 -11 -2 -7 14 7 13 8 16 -172 1 -113
-4 -144 -17 -110 -3 7 -6 5 -6 -5 -1 -11 6 -18 17 -19 10 0 12 -3 4 -6 -6 -2
-9 -10 -5 -16 14 -23 9 -131 -7 -145 -8 -8 -10 -11 -4 -8 15 7 24 -51 13 -81
-6 -16 -5 -23 4 -23 6 -1 1 -7 -12 -14 -15 -8 -20 -16 -12 -20 6 -4 11 -2 11
3 0 6 3 11 8 11 4 0 7 -45 6 -100 0 -54 2 -97 5 -95 4 2 7 -10 7 -26 1 -16 -2
-26 -7 -23 -5 3 -9 0 -9 -5 0 -6 5 -11 10 -11 6 0 10 -11 10 -25 0 -14 6 -25
13 -25 6 -1 1 -10 -13 -22 l-25 -21 25 8 25 8 -20 -24 c-11 -13 -13 -18 -4
-11 9 6 19 9 22 5 4 -3 -1 -12 -11 -20 -13 -10 -14 -13 -2 -11 8 2 14 -3 13
-9 -2 -7 2 -13 7 -13 6 0 10 -9 10 -20 0 -11 4 -20 9 -20 11 0 9 -19 -3 -39
-7 -11 -5 -13 7 -8 9 3 19 2 22 -3 8 -13 -18 -18 -40 -8 l-20 9 20 -16 c24
-19 26 -45 5 -63 -13 -11 -11 -11 8 -2 12 6 27 8 32 5 6 -3 7 1 4 9 -3 9 -9
14 -13 12 -4 -3 -7 4 -7 15 0 10 1 19 3 19 3 0 46 -82 49 -92 1 -5 3 -11 4
-15 1 -5 2 -11 1 -15 0 -5 4 -8 9 -8 13 0 13 -26 0 -51 -9 -16 -15 -17 -33 -9
-21 11 -21 11 -3 -4 12 -10 24 -12 29 -7 5 5 17 7 26 4 13 -4 13 -3 2 5 -10 7
-11 14 -2 28 6 11 11 13 11 7 0 -7 0 -16 1 -20 0 -5 11 -22 24 -39 13 -17 21
-34 18 -38 -4 -3 -2 -6 4 -6 6 0 13 -10 16 -22 6 -22 6 -22 -13 2 -10 13 -16
28 -14 32 3 4 -5 5 -16 3 -11 -2 -20 0 -20 6 0 5 6 9 13 10 6 0 2 5 -11 11
-17 9 -26 8 -35 -1 -10 -11 -8 -12 8 -7 17 5 21 2 20 -16 0 -13 -6 -32 -12
-44 -10 -16 -9 -21 2 -21 7 0 11 7 7 15 -6 18 11 10 44 -20 22 -19 23 -75 1
-61 -6 4 -7 1 -2 -6 9 -15 22 -4 27 23 4 26 37 30 35 5 -1 -21 -12 -25 -20 -9
-3 6 -4 5 -3 -2 2 -7 14 -12 27 -10 23 2 23 2 3 -16 -10 -11 -21 -15 -22 -11
-2 5 -9 9 -14 9 -6 0 -8 -3 -5 -7 4 -3 1 -13 -6 -21 -10 -13 -9 -14 3 -7 25
16 70 12 87 -7 9 -10 11 -18 5 -18 -6 0 -14 5 -17 10 -3 6 -10 10 -15 10 -5 0
7 -17 28 -38 20 -21 41 -36 46 -34 4 3 5 -6 1 -19 -3 -13 -3 -19 2 -14 11 15
35 13 41 -4 3 -8 0 -11 -5 -8 -5 3 -15 1 -23 -5 -12 -8 -12 -9 3 -4 16 5 25
-8 9 -17 -4 -2 -2 -2 5 -1 6 2 14 -2 17 -9 3 -7 3 -1 -1 13 -5 22 -4 23 10 11
13 -10 14 -18 6 -35 -9 -18 -8 -19 3 -4 10 12 18 14 31 6 13 -7 25 -5 44 7 18
12 28 14 36 6 8 -8 8 -11 -2 -11 -7 0 -9 -5 -5 -11 4 -8 9 -8 17 0 15 15 47
-15 41 -37 -5 -15 -4 -15 9 1 18 21 28 22 21 2 -5 -11 -1 -14 12 -9 16 5 16 4
4 -5 -8 -6 -12 -11 -7 -12 4 -1 12 -3 17 -4 6 -1 17 -3 25 -4 11 -1 14 -9 11
-25 -3 -18 -1 -23 9 -20 7 3 12 14 10 24 -3 13 1 17 12 13 10 -4 11 -8 3 -13
-8 -5 -7 -9 4 -13 9 -4 16 -1 16 6 1 7 6 2 13 -11 7 -12 15 -21 18 -18 2 2 4
-11 5 -29 0 -22 -3 -32 -11 -28 -7 2 -12 12 -11 21 0 9 -5 16 -12 14 -8 -1
-11 2 -6 9 4 8 3 9 -5 5 -6 -4 -18 -2 -26 4 -11 10 -15 10 -15 1 0 -7 -5 -9
-10 -6 -6 3 -8 17 -6 31 3 14 1 22 -5 19 -5 -4 -9 0 -9 7 0 10 -3 9 -9 -1 -8
-13 -12 -13 -27 0 -14 11 -16 11 -10 1 7 -11 4 -12 -13 -3 -24 13 -29 23 -7
15 8 -3 17 0 21 6 4 6 1 11 -6 9 -24 -3 -39 1 -38 9 3 20 -3 23 -18 11 -14
-12 -16 -12 -8 0 6 10 4 12 -5 6 -9 -6 -11 -4 -5 5 5 8 4 11 -3 6 -15 -9 -3
-38 14 -32 7 3 16 1 19 -4 6 -10 5 -11 -33 -15 -12 -1 -26 -6 -30 -10 -4 -5 1
-5 11 -2 9 4 17 3 17 -1 0 -4 10 -9 22 -9 18 -2 20 0 8 8 -12 8 -11 9 5 7 12
-2 19 -10 17 -20 -1 -9 2 -19 8 -23 6 -3 7 0 4 9 -3 9 -1 16 5 16 6 0 11 -3
12 -7 0 -5 2 -16 4 -26 3 -14 -1 -17 -13 -12 -9 3 -13 3 -9 -1 4 -4 0 -12 -9
-18 -13 -10 -13 -12 5 -12 11 0 18 3 17 6 -2 3 10 15 25 28 35 28 38 18 7 -17
l-23 -26 28 24 c26 23 38 18 17 -7 -6 -6 -7 -10 -4 -7 4 3 12 -3 19 -12 8 -11
17 -13 26 -7 26 16 40 13 34 -7 -4 -11 -2 -19 5 -19 6 0 8 4 5 10 -3 5 1 10 9
10 14 0 20 -12 17 -32 -2 -11 6 -10 39 7 27 14 30 14 39 -4 8 -15 7 -20 -5
-25 -12 -4 -15 -2 -10 9 5 13 2 14 -17 4 -28 -15 -37 -24 -15 -16 10 3 20 2
24 -4 4 -6 15 -4 30 5 29 20 34 20 34 2 0 -8 5 -18 11 -22 8 -4 9 1 4 17 -7
20 -5 22 6 12 11 -9 18 -8 33 2 10 8 25 11 34 7 15 -5 15 -4 3 11 -7 9 -18 14
-25 10 -19 -12 -56 -11 -49 1 4 6 -2 4 -12 -4 -17 -13 -18 -13 -11 0 4 8 0 6
-10 -5 -14 -17 -16 -18 -10 -2 4 12 2 16 -6 11 -7 -5 -8 -3 -3 6 5 9 4 11 -3
6 -8 -5 -10 -2 -6 8 3 9 1 16 -5 16 -6 0 -11 -7 -11 -16 0 -8 -5 -12 -10 -9
-6 4 -8 10 -5 15 3 4 -3 7 -13 6 -12 -1 -16 5 -14 19 2 11 4 26 4 34 1 11 4
10 13 -3 7 -8 16 -12 21 -8 4 4 3 0 -4 -10 -9 -11 -10 -18 -2 -23 5 -3 10 -1
10 6 0 8 4 8 15 -1 18 -15 20 1 3 19 -11 10 -10 11 5 6 9 -4 17 -14 17 -22 0
-12 3 -13 14 -4 11 9 16 9 21 0 6 -8 10 -7 17 2 8 11 9 10 4 -3 -6 -19 28 -45
39 -29 3 5 0 11 -7 14 -8 2 -7 3 2 3 8 -1 16 -7 16 -14 3 -25 5 -27 15 -12 8
11 12 12 16 2 2 -6 9 -10 14 -7 5 4 6 -1 3 -10 -6 -13 -3 -14 19 -4 15 7 24
16 20 22 -3 6 -1 7 5 3 9 -5 8 -15 -3 -37 -16 -30 -29 -40 -19 -14 4 8 1 15
-5 15 -6 0 -10 -3 -9 -7 5 -18 -14 -53 -25 -47 -7 4 -9 3 -4 -1 14 -16 47 -15
53 0 4 8 11 12 17 8 6 -3 7 -1 3 5 -4 7 -3 12 3 12 6 0 17 -12 25 -27 15 -28
16 -28 22 -6 3 13 10 20 15 17 5 -3 5 -13 -1 -24 -13 -24 -13 -30 1 -30 5 0 7
5 4 10 -3 6 1 10 9 10 8 0 20 -8 25 -17 6 -10 11 -13 11 -7 0 5 -5 15 -11 21
-7 7 -7 13 -1 17 6 3 14 -3 17 -15 5 -15 9 -18 15 -9 6 9 12 9 29 1 12 -7 21
-8 20 -4 -3 20 2 34 11 28 5 -3 7 -13 4 -23 -5 -14 -4 -15 5 -2 7 10 11 11 11
3 0 -7 5 -13 12 -13 6 0 3 9 -7 20 -19 21 -8 29 13 8 8 -8 15 -8 27 2 18 15
21 0 3 -18 -8 -8 -9 -12 -1 -12 6 0 14 6 17 13 5 9 7 9 12 0 3 -7 10 -13 16
-13 6 0 3 9 -7 20 -24 27 -7 26 22 -2 18 -17 26 -19 35 -10 15 15 32 16 23 2
-3 -5 -1 -10 5 -10 7 0 9 8 4 22 -6 19 -5 21 8 11 11 -10 17 -10 26 -1 9 9 12
9 12 0 0 -6 -8 -16 -17 -21 -10 -6 -13 -11 -6 -11 6 0 15 5 18 11 5 7 14 3 26
-10 11 -12 23 -21 26 -21 3 0 -2 9 -12 20 -10 11 -13 20 -7 20 7 0 17 -9 24
-20 7 -11 17 -20 22 -20 5 0 1 9 -9 20 -22 24 -9 27 17 3 10 -9 18 -11 18 -6
0 6 -7 13 -15 17 -17 6 -21 27 -4 24 6 -2 14 3 16 10 4 9 -3 11 -21 8 -23 -4
-25 -3 -15 15 7 13 7 24 1 32 -8 9 -4 12 13 13 13 1 26 -4 29 -12 3 -8 11 -14
17 -14 8 0 7 6 -2 18 -13 15 -12 16 3 4 13 -10 17 -10 22 0 3 7 4 4 3 -6 -1
-10 3 -21 10 -23 7 -3 11 3 8 15 -2 11 2 19 11 19 9 0 10 -4 4 -12 -5 -6 -5
-16 0 -25 6 -8 10 -12 11 -7 1 4 3 12 4 17 1 6 3 15 4 20 2 15 18 12 24 -4 4
-10 1 -13 -7 -10 -7 3 -13 -2 -13 -10 0 -8 9 -14 19 -13 10 1 18 5 18 10 0 5
10 5 22 1 20 -6 21 -5 9 9 -7 9 -17 15 -21 12 -5 -3 -11 -1 -14 4 -7 11 13 9
32 -2 6 -5 12 -4 12 1 0 4 16 8 35 8 29 -1 33 -3 20 -12 -16 -12 -21 -29 -5
-19 5 3 10 1 10 -6 0 -13 14 -3 16 12 1 5 2 14 3 19 2 15 18 12 24 -4 4 -10 1
-13 -7 -10 -7 3 -13 -2 -13 -10 0 -8 9 -14 19 -13 10 1 18 5 18 10 0 5 10 5
22 1 20 -6 21 -5 9 9 -7 9 -17 15 -21 12 -5 -3 -11 -1 -14 4 -7 11 13 9 32 -2
6 -5 12 -4 12 1 0 12 32 12 48 -1 8 -6 12 -6 12 2 0 6 5 11 11 11 8 0 8 -4 2
-12 -17 -21 -11 -47 8 -45 22 1 33 25 20 41 -7 8 4 11 40 11 38 0 50 -3 55
-17 3 -10 10 -18 15 -18 12 0 12 13 -1 26 -7 7 -6 11 4 11 8 0 13 -4 11 -8 -3
-4 2 -9 10 -13 18 -6 30 10 13 18 -7 3 -4 4 7 3 11 -1 24 -6 28 -12 6 -6 10
-6 14 3 2 6 9 12 15 12 7 0 7 -4 1 -13 -17 -20 -11 -46 8 -44 22 1 33 25 20
41 -7 8 4 11 40 11 38 0 50 -3 55 -17 3 -10 10 -18 15 -18 12 0 12 13 -1 26
-7 7 -6 11 4 11 8 0 13 -4 11 -8 -3 -4 2 -9 10 -13 18 -6 30 10 13 18 -7 3 -4
4 7 3 11 -1 24 -6 28 -12 6 -6 10 -6 14 3 2 6 9 12 15 12 7 0 7 -4 1 -13 -17
-20 -11 -46 8 -44 22 1 33 25 20 41 -6 8 -2 11 15 12 22 2 29 -7 25 -29 -1 -5
4 -7 11 -4 7 2 12 13 10 23 -2 14 -1 16 6 5 5 -7 12 -9 14 -5 3 5 3 4 2 -3 -2
-7 1 -15 6 -18 9 -5 14 6 12 26 -1 3 6 6 13 6 10 0 12 -4 5 -12 -5 -6 -5 -16
0 -25 6 -8 10 -12 11 -7 1 4 3 12 4 17 1 6 3 15 4 20 2 15 18 12 24 -4 4 -10
1 -13 -7 -10 -7 3 -13 -2 -13 -10 0 -8 9 -14 19 -13 10 1 18 5 18 10 0 5 10 5
22 1 20 -6 21 -5 9 9 -7 9 -17 15 -21 12 -5 -3 -11 -1 -14 4 -7 11 13 9 32 -2
6 -5 12 -4 12 1 0 4 16 8 35 8 29 -1 33 -3 20 -12 -16 -12 -21 -29 -5 -19 6 3
10 1 10 -6 0 -13 14 -3 16 12 1 5 2 14 3 19 2 15 18 12 24 -4 4 -10 1 -13 -7
-10 -7 3 -13 -2 -13 -10 0 -8 9 -14 19 -13 10 1 18 5 18 10 0 5 10 5 22 1 20
-6 21 -5 9 9 -7 9 -17 15 -21 12 -5 -3 -11 -1 -14 4 -7 11 13 9 32 -2 6 -5 12
-4 12 1 0 12 32 12 48 -1 8 -6 12 -6 12 2 0 6 5 11 11 11 8 0 8 -4 2 -12 -17
-21 -11 -47 8 -45 22 1 33 25 20 41 -7 8 4 11 40 11 38 0 50 -3 55 -17 3 -10
10 -18 15 -18 12 0 12 13 -1 26 -7 7 -6 11 4 11 8 0 13 -4 11 -8 -3 -4 2 -9
10 -13 18 -6 30 10 13 18 -7 3 -4 4 7 3 11 -1 24 -6 28 -12 6 -6 10 -6 14 3 2
6 9 12 15 12 7 0 7 -4 1 -12 -15 -19 -12 -48 5 -46 8 2 17 -2 19 -9 3 -7 -4
-11 -16 -10 -12 1 -21 6 -21 12 0 5 -5 3 -10 -5 -9 -13 -10 -13 -10 0 0 13 -1
13 -10 0 -9 -13 -10 -13 -10 0 -1 12 -3 11 -11 -2 -5 -10 -15 -18 -21 -18 -7
0 -7 4 1 13 6 8 7 18 3 22 -4 5 -1 5 6 1 14 -8 17 10 3 19 -9 5 -36 -32 -34
-45 1 -3 -1 -7 -4 -10 -3 -3 -4 5 -1 17 4 15 2 20 -8 16 -8 -3 -12 -9 -9 -13
3 -5 0 -12 -6 -16 -7 -4 -9 -3 -5 4 4 7 -1 10 -14 7 -11 -2 -18 -1 -16 3 2 4
-11 8 -30 8 -19 0 -34 -4 -34 -9 0 -6 -5 -5 -12 0 -7 6 -25 9 -40 8 -15 -1
-25 2 -22 7 3 4 9 6 14 3 5 -3 11 -1 15 5 3 5 1 10 -6 10 -8 0 -8 4 1 15 7 8
9 15 4 15 -13 0 -36 -16 -35 -24 3 -24 0 -27 -16 -15 -14 12 -16 12 -8 0 6
-10 4 -12 -6 -6 -8 5 -3 -4 10 -18 14 -15 19 -27 13 -27 -6 0 -17 8 -24 18
-14 18 -68 26 -68 9 0 -6 -4 -6 -12 0 -7 6 -21 9 -31 8 -9 -2 -15 1 -12 5 3 5
18 7 33 4 27 -4 27 -4 4 9 -17 10 -20 15 -10 25 7 7 8 12 3 12 -14 0 -37 -16
-36 -24 3 -24 0 -28 -14 -16 -12 10 -14 8 -10 -9 2 -12 0 -21 -6 -21 -5 0 -9
4 -9 9 0 14 -54 7 -68 -9 -8 -8 -11 -10 -8 -4 4 8 -5 11 -24 9 -18 -2 -27 1
-23 8 4 6 1 7 -7 2 -8 -5 -11 -4 -7 2 3 5 -3 9 -14 8 -11 -1 -25 -8 -30 -16
-7 -12 -9 -12 -9 1 0 9 -3 11 -8 5 -10 -14 -53 -15 -46 -1 3 6 -1 2 -10 -8
-14 -18 -16 -18 -22 -2 -5 14 -9 15 -16 4 -8 -10 -9 -10 -5 2 2 8 10 14 16 12
13 -3 15 14 2 23 -19 11 -33 -33 -19 -57 7 -13 11 -27 10 -31 -1 -5 2 -6 7 -2
6 3 7 13 4 23 -6 15 -5 16 12 2 15 -12 17 -12 10 -1 -6 11 -4 13 7 8 9 -3 21
0 27 6 8 8 11 8 11 -1 0 -7 -7 -15 -15 -18 -18 -7 -20 -25 -2 -22 6 2 11 -3 9
-10 -1 -8 2 -11 8 -7 8 5 8 11 1 19 -11 13 -5 26 11 26 5 0 6 -4 3 -10 -4 -6
1 -7 12 -3 16 6 16 5 4 -10 -19 -24 -6 -21 18 4 12 13 21 17 26 10 3 -6 11
-11 18 -11 6 0 2 7 -9 16 -14 12 -15 14 -3 11 9 -3 22 0 29 6 10 9 11 7 5 -10
-4 -15 -2 -23 5 -23 6 0 9 4 6 9 -10 16 23 21 38 6 19 -20 32 -19 16 0 -15 18
-7 19 22 4 12 -6 18 -7 14 -1 -3 5 1 12 9 16 8 3 17 1 20 -4 3 -4 0 -10 -6
-12 -7 -2 -5 -9 5 -17 14 -12 16 -12 10 3 -3 9 -2 16 4 16 5 0 12 -9 15 -21 5
-18 8 -19 26 -7 11 7 18 14 16 17 -3 2 -11 -2 -20 -9 -8 -7 -15 -8 -15 -2 0 5
6 15 14 21 11 9 17 8 29 -4 21 -20 33 -19 16 2 -12 15 -12 16 6 9 11 -4 25 -9
31 -10 23 -4 43 -28 38 -44 -5 -15 -4 -14 6 1 6 9 15 15 20 12 5 -3 12 0 16 6
5 8 3 9 -6 4 -8 -5 -11 -3 -9 4 3 7 7 11 11 9 3 -2 14 4 24 13 21 18 57 22 51
5 -2 -6 -11 -10 -19 -8 -13 2 -49 -26 -37 -29 39 -8 40 -7 27 8 -11 14 -10 15
10 9 13 -4 22 -3 22 3 0 6 15 1 34 -10 l34 -20 -2 25 c-4 30 7 33 26 8 7 -10
20 -22 28 -27 9 -5 8 0 -4 13 -11 12 -14 22 -8 22 7 0 17 -9 24 -20 7 -11 17
-20 22 -20 5 0 1 9 -9 20 -22 24 -9 27 17 3 10 -9 18 -11 18 -6 0 6 -7 13 -15
17 -18 7 -20 27 -3 24 7 -2 18 -10 25 -18 9 -11 12 -12 13 -2 0 7 5 10 10 7 6
-4 8 -10 5 -15 -3 -5 -1 -11 4 -15 6 -3 8 6 5 21 -4 23 -3 25 10 15 8 -7 12
-20 9 -29 -3 -9 4 -5 16 11 12 15 27 27 33 27 7 0 1 -11 -12 -25 -13 -14 -22
-25 -19 -26 2 0 12 -2 22 -4 14 -3 16 0 8 9 -8 10 -6 18 9 31 21 19 28 7 8
-13 -9 -9 -9 -12 0 -12 7 0 12 4 12 10 0 5 15 0 34 -11 l34 -20 -2 25 c-4 30
7 33 26 8 7 -10 20 -22 28 -27 9 -5 8 0 -4 13 -11 12 -14 22 -8 22 7 0 17 -9
24 -20 7 -11 17 -20 22 -20 5 0 1 9 -9 20 -22 24 -9 27 17 3 10 -9 18 -11 18
-6 0 6 -7 13 -15 17 -17 6 -21 27 -4 24 6 -2 14 3 16 10 4 9 -3 11 -21 8 -23
-4 -25 -3 -15 15 7 13 7 24 1 32 -8 9 -4 12 13 13 13 1 26 -4 29 -12 3 -8 11
-14 17 -14 8 0 7 6 -2 18 -13 15 -12 16 3 4 13 -10 17 -10 22 0 3 7 4 4 3 -7
-1 -11 5 -21 16 -23 9 -2 17 2 17 8 0 6 -4 9 -8 6 -5 -3 -9 1 -9 8 0 7 6 13
13 13 7 0 11 -4 9 -8 -3 -4 2 -9 10 -13 18 -6 30 10 13 18 -7 3 -4 4 7 3 11
-1 24 -6 28 -12 6 -6 10 -6 14 3 2 6 9 12 15 12 7 0 7 -4 1 -12 -17 -21 -11
-47 8 -45 22 1 33 25 20 41 -7 8 -4 12 8 12 13 0 16 -6 13 -25 -3 -15 -1 -22
6 -17 15 9 23 -7 10 -24 -8 -13 -9 -12 -5 2 4 10 0 15 -8 14 -23 -3 -29 -14
-16 -30 10 -12 9 -15 -8 -13 -16 1 -20 6 -15 22 4 14 2 16 -4 7 -7 -10 -11
-10 -22 3 -7 8 -9 15 -5 15 4 0 2 7 -5 15 -23 27 -32 16 -11 -14 18 -25 19
-30 5 -35 -24 -9 -28 -7 -16 7 8 9 8 17 0 27 -8 13 -9 13 -5 -1 3 -10 -2 -15
-18 -15 -13 0 -21 4 -19 8 3 5 10 6 15 3 5 -4 9 -2 9 4 0 18 -20 23 -26 7 -3
-9 -10 -14 -14 -11 -4 2 -18 -4 -30 -15 -12 -11 -27 -17 -31 -14 -5 3 -9 1 -9
-5 0 -5 5 -13 10 -16 6 -3 10 -1 10 5 0 6 5 8 10 5 6 -4 8 -10 5 -15 -3 -5 -1
-11 4 -15 6 -3 8 5 5 20 l-4 25 32 -20 c24 -15 35 -17 46 -8 10 9 16 8 22 -2
7 -11 11 -11 23 -1 11 8 17 9 22 1 3 -6 11 -8 16 -4 5 3 21 7 34 10 19 3 25 0
25 -13 0 -14 3 -12 13 6 6 14 18 26 25 29 10 3 10 -2 -3 -21 -9 -14 -12 -28
-7 -31 13 -8 36 20 28 33 -4 6 4 15 16 22 21 11 22 11 9 -4 -7 -10 -11 -18 -7
-18 3 -1 11 -2 16 -3 6 0 15 -8 20 -16 5 -8 10 -11 10 -6 0 5 -7 18 -17 28 -9
10 -11 18 -5 18 6 0 19 -11 27 -24 9 -13 24 -27 33 -30 13 -5 13 -3 -2 9 -11
8 -17 18 -13 21 4 4 14 1 24 -7 11 -9 14 -10 9 -1 -4 6 -3 12 2 12 16 0 22
-13 11 -27 -9 -9 -8 -13 0 -13 6 0 11 5 11 11 0 5 5 7 10 4 6 -3 10 -1 10 4 0
6 -5 11 -11 11 -5 0 -7 5 -3 12 5 7 3 8 -6 3 -9 -6 -10 -1 -5 16 5 19 4 21 -5
9 -9 -12 -10 -10 -5 10 6 24 5 24 -10 -2 -9 -16 -21 -28 -27 -28 -6 0 -5 6 3
17 10 12 10 14 1 9 -7 -4 -15 -1 -18 9 -6 14 -8 14 -21 -2 -8 -10 -11 -12 -8
-5 6 11 3 12 -14 3 -11 -7 -21 -8 -21 -4 0 4 -5 1 -11 -7 -8 -12 -9 -11 -5 6
5 15 2 21 -9 21 -9 0 -14 -6 -11 -13 3 -8 0 -16 -6 -20 -7 -5 -8 -2 -3 6 6 9
4 11 -4 5 -10 -6 -11 -3 -3 12 8 15 8 20 -2 20 -6 0 -12 -12 -11 -25 0 -14 -6
-27 -13 -30 -11 -3 -12 0 -3 16 6 11 9 27 6 34 -3 7 4 19 16 26 12 8 18 9 14
3 -3 -6 -2 -11 4 -11 5 0 13 5 16 10 3 6 12 10 18 10 7 0 4 -5 -5 -11 -10 -5
-18 -14 -18 -20 0 -5 11 -2 25 7 26 17 88 28 80 14 -3 -4 2 -10 10 -14 18 -6
30 10 13 18 -7 3 -4 4 7 3 11 -1 24 -6 28 -12 6 -6 10 -6 14 3 2 6 9 12 15 12
7 0 7 -4 1 -12 -16 -20 -12 -48 6 -46 8 2 17 -5 19 -16 3 -11 0 -16 -7 -11 -6
3 -8 12 -4 18 4 7 0 6 -10 -2 -13 -11 -17 -11 -17 -1 0 8 -3 11 -6 8 -3 -4 0
-17 7 -30 7 -12 12 -27 11 -31 -1 -5 2 -6 7 -2 6 3 7 13 4 23 -6 15 -5 16 12
2 15 -12 17 -12 10 -1 -6 11 -4 13 7 8 9 -3 21 0 27 6 8 8 11 8 11 -1 0 -7 -7
-15 -15 -18 -18 -7 -20 -25 -2 -22 6 2 11 -3 9 -10 -1 -8 2 -11 8 -7 8 5 8 11
1 19 -11 13 -5 26 11 26 5 0 6 -4 3 -10 -4 -6 1 -7 12 -3 16 6 16 5 4 -10 -19
-24 -6 -21 18 4 12 13 21 17 26 10 3 -6 11 -11 18 -11 6 0 2 7 -9 16 -14 12
-15 14 -3 11 9 -3 22 0 29 6 10 9 11 7 5 -10 -4 -15 -2 -23 5 -23 6 0 8 4 5
10 -8 13 15 13 35 0 9 -6 19 -5 28 2 10 9 16 8 22 -2 7 -11 11 -11 23 -1 11 8
17 9 22 1 3 -6 11 -8 16 -4 5 3 21 7 34 10 19 3 25 0 25 -13 0 -14 3 -12 13 6
6 14 18 26 25 29 10 3 10 -2 -3 -21 -9 -14 -12 -28 -7 -31 13 -8 36 20 28 33
-4 6 4 15 16 22 21 11 22 11 9 -4 -7 -10 -11 -18 -7 -18 3 -1 11 -2 16 -3 6 0
15 -8 20 -16 5 -8 10 -11 10 -6 0 5 -7 18 -17 28 -9 10 -11 18 -5 18 6 0 19
-11 27 -24 9 -13 24 -27 33 -30 13 -5 13 -3 -2 9 -11 8 -17 18 -13 21 4 4 14
1 24 -7 11 -9 14 -10 9 -1 -4 6 -3 12 2 12 16 0 22 -13 11 -27 -9 -9 -8 -13 0
-13 6 0 11 5 11 11 0 5 5 7 10 4 6 -3 10 -1 10 4 0 6 -5 11 -11 11 -5 0 -7 5
-3 12 5 7 3 8 -6 3 -9 -6 -10 -1 -5 16 5 19 4 21 -5 9 -9 -12 -10 -10 -5 10 6
24 5 24 -10 -2 -9 -16 -21 -28 -27 -28 -6 0 -5 6 3 17 10 12 10 14 1 9 -7 -4
-15 -1 -18 9 -6 14 -8 14 -21 -2 -8 -10 -11 -12 -8 -5 6 11 3 12 -14 3 -11 -7
-21 -8 -21 -4 0 4 -5 1 -11 -7 -8 -12 -9 -11 -5 6 5 15 2 21 -9 21 -9 0 -14
-6 -11 -13 3 -8 0 -16 -6 -20 -7 -5 -8 -2 -3 6 6 9 4 11 -4 5 -10 -6 -11 -3
-3 12 8 15 8 20 -2 20 -6 0 -12 -12 -11 -25 0 -14 -6 -27 -13 -30 -11 -3 -12
0 -3 16 6 11 9 27 6 34 -3 7 4 19 16 26 12 8 18 9 14 3 -3 -6 -2 -11 4 -11 5
0 13 5 16 10 3 6 12 10 18 10 7 0 4 -5 -6 -11 -9 -5 -17 -14 -17 -20 0 -5 11
-2 25 7 26 17 88 28 80 14 -3 -4 2 -10 10 -14 18 -6 30 10 13 18 -7 3 -4 4 7
3 11 -1 24 -6 28 -12 6 -6 10 -6 14 3 2 6 9 12 15 12 7 0 7 -4 1 -12 -16 -20
-12 -48 6 -46 8 2 17 -5 19 -16 3 -11 0 -16 -7 -11 -6 3 -8 12 -4 18 4 7 0 6
-10 -2 -13 -11 -17 -11 -17 -1 0 8 -3 11 -6 8 -3 -4 0 -17 7 -30 7 -12 12 -27
11 -31 -1 -5 2 -6 7 -2 6 3 7 13 4 23 -6 15 -5 16 12 2 15 -12 17 -12 10 -1
-6 11 -4 13 7 8 9 -3 21 0 27 6 8 8 11 8 11 -1 0 -7 -7 -15 -15 -18 -18 -7
-20 -25 -2 -22 6 2 11 -3 9 -10 -1 -8 2 -11 8 -7 8 5 8 11 1 19 -11 13 -5 26
11 26 5 0 6 -4 3 -10 -4 -6 1 -7 12 -3 16 6 16 5 4 -10 -19 -24 -6 -21 18 4
12 13 21 17 26 10 3 -6 11 -11 18 -11 6 0 2 7 -9 16 -14 12 -15 14 -3 11 9 -3
22 0 29 6 10 9 11 7 5 -10 -4 -15 -2 -23 5 -23 6 0 8 5 5 10 -8 13 15 13 35 0
9 -6 19 -5 28 2 10 9 16 8 22 -2 7 -11 11 -11 23 -1 11 8 17 9 22 1 3 -6 11
-8 16 -4 25 15 58 13 62 -3 4 -17 5 -17 6 0 0 10 6 15 11 12 6 -4 9 -1 8 6 -2
6 2 13 9 16 7 2 10 -3 8 -14 -2 -10 -4 -22 -4 -26 -1 -5 -6 -5 -13 -1 -6 4 -8
3 -5 -4 4 -5 17 -8 29 -4 14 3 19 1 14 -6 -3 -6 -2 -13 3 -16 12 -8 7 24 -5
32 -11 8 -12 27 -2 37 3 4 9 -3 13 -14 4 -14 11 -18 23 -14 15 6 16 5 2 -12
-13 -17 -13 -18 0 -10 8 5 23 19 33 32 10 13 23 23 29 23 7 0 2 -10 -10 -23
-12 -13 -22 -26 -22 -30 0 -4 14 7 31 25 18 20 29 26 25 15 -5 -15 -2 -16 14
-7 15 8 21 6 29 -7 10 -17 10 -17 11 0 0 10 5 15 10 12 6 -4 8 -10 6 -14 -3
-4 2 -8 10 -8 10 0 11 4 4 11 -5 5 -10 14 -10 20 0 6 5 5 12 -2 14 -14 38 -16
38 -2 0 5 -8 6 -17 3 -16 -6 -16 -5 -4 11 14 17 16 17 27 1 7 -9 10 -23 8 -29
-3 -7 3 -19 13 -27 16 -13 17 -12 4 3 -11 15 -11 22 4 44 9 14 19 23 22 20 3
-3 0 -13 -7 -21 -11 -13 -11 -18 0 -28 10 -9 11 -9 6 1 -12 20 12 40 44 36 16
-2 32 1 35 6 4 6 11 5 19 -3 8 -6 11 -16 8 -21 -3 -5 0 -6 7 -2 9 6 8 13 -5
27 -9 10 -21 16 -25 13 -5 -3 -9 0 -9 6 0 6 -5 8 -11 4 -8 -4 -7 -9 2 -15 9
-5 1 -7 -20 -4 -19 2 -39 9 -44 14 -16 16 6 14 22 -1 11 -10 12 -10 7 -1 -5 9
-1 11 11 7 15 -5 15 -4 3 4 -8 6 -18 8 -24 5 -5 -3 -6 -2 -3 3 3 5 -3 10 -13
10 -10 0 -18 -5 -17 -11 1 -5 -8 -9 -20 -9 -13 1 -21 -2 -18 -5 2 -4 -5 -7
-15 -8 -18 -2 -18 -1 1 18 21 21 26 44 7 33 -9 -5 -9 -2 1 9 14 18 26 24 17 8
-8 -12 57 -9 66 4 5 6 8 6 8 -2 0 -7 5 -13 11 -13 6 0 9 7 6 14 -4 10 -1 13 9
9 7 -3 14 -9 14 -14 0 -5 7 -9 16 -9 13 0 14 3 5 14 -9 11 -6 13 15 10 19 -2
24 1 20 12 -10 26 3 14 20 -17 10 -20 11 -28 3 -24 -7 5 -10 4 -6 -2 3 -5 0
-10 -8 -10 -8 0 -11 5 -8 11 4 6 0 5 -9 -2 -8 -7 -24 -10 -34 -6 -16 5 -17 4
-4 -6 12 -9 11 -10 -7 -5 -14 4 -23 2 -23 -5 0 -6 4 -9 8 -6 5 3 21 -1 36 -9
14 -8 34 -11 43 -8 10 4 14 2 9 -5 -3 -6 -1 -14 5 -18 7 -4 9 -3 6 3 -3 5 7
20 23 32 17 12 30 18 30 14 -1 -13 -26 -43 -32 -38 -2 3 -5 -2 -5 -10 0 -10 4
-12 12 -5 7 5 15 7 19 3 4 -4 4 1 0 11 -5 13 -4 17 3 13 7 -5 10 2 8 18 -1 16
2 24 9 22 14 -5 15 -37 2 -57 -8 -12 -8 -13 4 -3 19 18 21 43 4 67 -16 23 -19
40 -5 31 5 -3 12 -1 16 5 3 5 1 10 -6 10 -7 0 -9 3 -6 7 4 3 1 13 -6 22 -11
14 -10 14 6 2 16 -12 22 -9 18 12 -1 5 3 6 9 2 6 -3 7 -11 4 -17 -4 -6 -1 -9
7 -6 8 3 14 10 14 15 0 6 4 15 9 20 5 5 6 2 1 -6 -5 -9 -3 -12 6 -9 8 3 13 11
11 17 -1 7 2 10 8 6 6 -3 8 -11 5 -16 -4 -5 5 -14 19 -21 14 -6 26 -15 26 -20
0 -12 -14 -10 -28 4 -6 6 -19 13 -28 14 -14 2 -14 1 1 -16 16 -17 16 -18 -2
-16 -10 2 -24 -4 -31 -13 -11 -13 -12 -13 -7 -1 4 9 1 8 -8 -3 -11 -14 -16
-15 -20 -5 -3 7 -6 8 -6 2 -1 -6 11 -21 26 -35 14 -13 23 -19 20 -13 -4 7 0
15 9 18 13 5 14 9 4 21 -15 18 1 20 19 3 8 -7 11 -8 9 -3 -7 12 12 30 32 30 8
0 16 7 16 15 3 32 5 34 14 20 5 -8 12 -11 17 -7 9 9 -17 28 -29 21 -4 -3 -8 0
-8 6 0 6 -5 8 -11 4 -8 -4 -7 -9 2 -15 10 -6 10 -9 2 -9 -6 0 -15 5 -19 11 -8
13 14 29 31 22 7 -2 12 4 11 14 0 10 3 19 8 20 5 1 13 7 18 15 6 8 7 5 2 -12
-6 -22 -5 -23 9 -12 9 8 13 20 10 28 -8 22 5 17 18 -7 9 -17 8 -20 -2 -14 -8
6 -10 4 -4 -5 6 -9 4 -11 -5 -5 -8 5 -11 4 -6 -3 4 -7 -3 -9 -21 -6 -21 3 -24
2 -13 -6 13 -9 13 -10 0 -10 -13 0 -13 -1 0 -10 9 -5 19 -5 27 2 9 7 13 7 13
0 0 -6 -4 -14 -10 -17 -6 -3 -10 -14 -9 -23 0 -12 3 -10 10 7 8 19 12 21 24
11 9 -8 15 -8 15 -2 0 6 -6 12 -12 15 -7 2 -9 8 -5 13 5 5 17 -2 28 -16 15
-19 18 -20 10 -4 -6 12 -6 26 0 35 8 13 10 12 13 -10 0 -5 4 -12 8 -16 9 -9 5
16 -5 33 -5 6 -5 17 -1 24 5 7 3 8 -6 3 -9 -5 -11 -4 -6 3 5 8 1 10 -10 5 -11
-4 -13 -8 -6 -11 7 -2 12 -9 12 -15 0 -26 -25 16 -26 44 -1 16 1 27 4 24 3 -3
11 0 19 7 11 9 12 7 6 -8 -6 -17 -5 -17 10 -6 9 8 19 22 22 33 4 11 10 17 14
14 5 -2 19 4 31 15 12 11 27 17 33 13 6 -4 8 0 4 11 -4 10 -3 15 3 11 5 -3 18
-1 27 4 10 6 12 11 6 11 -7 0 -13 5 -13 11 0 5 5 7 10 4 6 -3 13 1 16 10 6 13
8 14 15 3 7 -10 9 -9 9 4 0 9 5 20 12 24 8 5 9 2 4 -12 -5 -10 -9 -24 -9 -31
0 -7 -4 -10 -9 -7 -4 3 -5 -3 -2 -13 4 -11 3 -14 -3 -6 -6 8 -13 8 -26 -2 -14
-10 -15 -14 -5 -19 7 -3 4 -4 -7 -3 -12 1 -19 -3 -17 -11 1 -8 -2 -11 -9 -6
-8 5 -9 3 -4 -7 8 -12 6 -12 -8 -1 -14 12 -16 11 -12 -7 2 -14 0 -19 -7 -15
-7 4 -8 3 -4 -4 5 -8 1 -10 -11 -6 -13 4 -15 3 -5 -4 18 -12 17 -21 -5 -37
-10 -7 -14 -17 -10 -22 10 -9 39 26 31 38 -2 4 5 7 16 6 11 -1 20 -7 20 -14 0
-6 4 -15 10 -18 6 -4 7 2 1 17 -5 13 -14 22 -20 20 -13 -3 -15 15 -2 23 5 3
17 -5 26 -17 l17 -23 -7 24 c-5 16 -4 21 4 17 6 -4 11 -2 11 4 0 7 -8 9 -22 5
-22 -7 -22 -7 -5 11 17 17 19 18 30 3 8 -11 19 -14 32 -9 19 7 18 8 -4 11 -14
2 -25 12 -27 22 -2 13 2 16 17 12 14 -5 19 -2 19 12 0 15 2 15 10 3 5 -9 5
-19 -1 -27 -8 -9 -5 -9 15 0 17 8 21 13 11 15 -19 4 -19 16 0 32 9 7 13 20 10
30 -3 10 0 17 10 17 10 0 13 -8 10 -26 l-5 -26 10 25 c13 29 40 60 52 60 5 0
7 -4 3 -9 -3 -5 -1 -12 4 -15 5 -4 8 2 7 11 -2 9 -8 19 -15 21 -8 3 -3 14 15
33 15 16 22 29 15 29 -7 0 -9 5 -6 11 9 14 47 -20 38 -35 -3 -6 -2 -7 2 -3 12
10 16 39 5 32 -5 -3 -11 -1 -15 5 -3 5 -1 10 5 10 6 0 8 5 4 11 -4 8 -9 7 -15
-2 -7 -11 -9 -10 -9 4 0 9 -5 17 -11 17 -6 0 -3 7 5 16 9 8 14 20 11 25 -4 5
-2 9 3 9 14 0 36 -29 28 -37 -4 -4 -11 -2 -15 6 -7 10 -9 10 -14 -1 -3 -10 3
-14 23 -14 26 0 28 2 18 19 -9 17 -8 19 6 14 13 -5 15 -3 7 12 -6 10 -8 21 -4
24 3 4 0 14 -8 23 -13 16 -12 16 9 5 16 -8 21 -18 17 -31 -3 -10 -1 -21 4 -25
7 -3 8 0 5 9 -4 10 -1 16 7 16 7 0 3 10 -11 25 -18 19 -20 28 -12 38 7 8 10
17 7 21 -3 3 0 2 7 -3 8 -8 8 -14 0 -23 -8 -11 -6 -17 8 -26 12 -7 21 -8 25
-2 4 6 1 9 -6 8 -6 -2 -14 3 -16 10 -3 7 1 10 10 6 8 -3 18 -1 22 5 3 7 0 8
-9 5 -9 -3 -16 -2 -16 4 0 5 9 12 20 15 13 3 18 10 14 21 -7 18 -34 22 -34 5
0 -5 4 -8 9 -4 5 3 12 1 15 -4 3 -5 -3 -11 -14 -14 -16 -4 -20 0 -20 18 0 13
3 25 8 27 12 5 60 108 50 108 -5 0 -2 7 6 16 9 8 14 20 10 25 -3 5 1 12 9 15
8 3 13 16 11 30 -1 13 2 24 6 24 5 0 7 9 5 21 -4 18 0 20 18 16 22 -6 22 -6 2
10 -20 15 -20 15 1 10 12 -2 27 -1 34 3 7 5 2 8 -14 8 -36 -1 -38 4 -23 41 7
17 16 28 20 24 4 -3 7 -1 7 5 0 7 -4 12 -8 12 -4 0 -8 11 -8 24 0 14 4 22 8
20 4 -3 8 -1 8 5 0 5 -6 12 -12 14 -10 4 -10 6 0 6 8 1 10 6 6 14 -5 8 -2 7 9
-2 15 -12 17 -12 11 3 -3 9 -11 16 -17 16 -6 0 -2 7 9 15 12 9 13 13 4 10 -11
-4 -16 1 -16 15 0 18 14 25 39 21 5 -1 6 3 3 8 -3 5 -16 7 -29 4 -22 -5 -22
-5 -2 11 11 10 14 15 8 11 -7 -3 -13 -1 -13 4 0 6 6 11 13 12 6 0 3 4 -8 9
-11 5 -14 9 -6 9 11 1 11 4 1 16 -8 10 -9 15 -2 15 6 0 9 6 6 14 -3 7 -6 42
-7 77 -1 46 2 68 13 77 8 8 10 11 4 8 -7 -4 -14 6 -16 24 -3 17 -1 30 4 30 5
0 6 5 2 11 -8 14 -8 135 1 149 3 5 0 10 -7 10 -7 1 -2 7 12 15 14 8 19 14 12
15 -7 0 -10 5 -6 12 4 6 3 8 -3 5 -6 -4 -13 2 -16 13 -3 11 0 20 6 20 8 0 7 3
-1 9 -11 7 -11 9 2 14 9 4 16 12 16 19 0 10 -2 10 -9 0 -6 -10 -10 -9 -14 7
-3 12 -1 21 5 21 5 0 6 5 2 11 -8 14 -8 135 1 149 3 5 0 10 -7 10 -7 1 -3 6 9
13 16 9 20 16 13 27 -8 13 -10 12 -10 -2 0 -10 -3 -18 -7 -18 -5 0 -8 11 -8
25 0 14 4 25 8 25 5 0 5 6 0 13 -15 23 -9 151 7 165 8 8 9 11 3 7 -9 -4 -13 4
-14 27 0 18 -1 51 -2 73 -1 25 4 45 13 53 8 8 10 11 3 8 -13 -7 -22 94 -11
125 5 12 3 19 -5 19 -7 1 -2 6 10 13 16 9 20 16 13 27 -8 13 -10 12 -10 -2 0
-10 -3 -18 -7 -18 -5 0 -8 11 -8 25 0 14 4 25 8 25 5 0 5 5 1 11 -8 14 -8 135
1 149 3 5 0 10 -7 10 -7 1 -3 6 9 13 16 9 20 16 13 27 -8 13 -10 12 -10 -2 0
-10 -3 -18 -7 -18 -5 0 -8 11 -8 25 0 14 4 25 8 25 5 0 5 5 1 11 -8 14 -8 135
1 149 3 5 0 10 -7 10 -7 1 -1 8 15 16 28 15 37 27 13 18 -19 -7 -15 24 5 36
10 7 9 9 -7 8 -17 -2 -21 -8 -19 -30 1 -15 -1 -28 -5 -28 -15 0 -6 134 10 148
8 8 9 11 3 7 -9 -4 -13 4 -14 27 0 18 -1 51 -2 73 -1 25 4 45 13 53 8 8 10 11
4 8 -7 -4 -14 6 -16 24 -3 17 -1 30 4 30 5 0 6 5 2 11 -8 14 -8 135 1 149 3 5
0 10 -7 10 -7 1 -2 7 12 15 14 8 19 14 12 15 -7 0 -10 5 -6 12 4 6 3 8 -3 5
-6 -4 -13 2 -16 13 -3 11 0 20 6 20 8 0 7 3 -1 9 -11 7 -11 9 2 14 9 4 16 12
16 19 0 10 -2 10 -9 0 -6 -10 -10 -9 -14 7 -3 12 -1 21 5 21 5 0 6 5 2 11 -8
14 -8 135 1 149 3 5 0 10 -7 10 -7 1 -3 6 9 13 16 9 20 16 13 27 -8 13 -10 12
-10 -2 0 -10 -3 -18 -7 -18 -5 0 -8 11 -8 25 0 14 4 25 8 25 5 0 5 5 1 12 -10
16 -11 68 -1 68 5 0 5 5 1 11 -8 14 -8 135 1 149 3 5 0 10 -7 10 -7 1 -2 7 12
15 14 8 19 14 12 15 -7 0 -10 5 -6 12 4 6 3 8 -3 5 -6 -4 -13 2 -16 13 -3 11
0 20 6 20 8 0 7 3 -1 9 -11 7 -11 9 2 14 9 4 16 12 16 19 0 10 -2 10 -9 0 -6
-10 -10 -9 -14 7 -3 12 -1 21 5 21 5 0 6 5 2 11 -8 14 -8 135 1 149 3 5 0 10
-7 10 -7 1 -3 6 9 13 16 9 20 16 13 27 -8 13 -10 12 -10 -2 0 -10 -3 -18 -7
-18 -5 0 -8 11 -8 25 0 14 4 25 8 25 5 0 5 6 0 13 -15 23 -9 151 7 165 8 8 9
11 3 7 -9 -4 -13 3 -14 22 0 15 -1 49 -2 76 -1 26 1 47 5 47 4 0 4 7 1 17 -5
12 -3 14 8 9 8 -4 6 -1 -3 6 -15 13 -15 15 3 26 11 7 25 10 32 6 9 -5 9 -3 0
7 -10 10 -16 10 -25 1 -18 -18 -23 -15 -23 18 0 17 3 30 6 30 4 0 3 18 -1 40
-4 22 -3 40 2 40 5 0 4 9 -2 20 -8 14 -8 20 0 20 6 0 8 5 4 12 -4 6 -7 32 -7
57 1 25 -4 49 -11 53 -8 6 -8 8 2 8 6 0 12 7 12 15 0 8 -4 15 -10 15 -5 0 -10
7 -10 16 0 8 4 13 9 9 5 -3 13 0 17 6 4 8 3 9 -4 5 -12 -7 -27 20 -36 67 -3
12 -7 32 -10 45 -3 13 0 22 7 23 7 0 2 4 -11 10 -13 5 -21 13 -17 19 3 5 1 19
-6 31 -9 17 -8 20 3 13 11 -6 11 -5 -1 9 -7 9 -10 17 -5 17 4 0 -1 7 -12 15
-10 8 -15 15 -10 15 5 0 3 7 -4 15 -6 8 -9 19 -5 25 3 5 1 10 -4 10 -6 0 -11
6 -11 14 0 8 -6 17 -12 19 -10 4 -9 8 2 16 12 9 11 11 -7 11 -16 0 -21 4 -17
15 4 8 1 15 -6 15 -6 0 -8 5 -5 10 3 6 1 10 -4 10 -6 0 -11 6 -11 13 0 7 -13
28 -30 47 -16 19 -29 41 -30 48 0 6 -5 12 -11 12 -5 0 -7 5 -4 10 3 6 -1 10
-10 10 -9 0 -14 4 -10 9 3 5 -5 17 -17 25 -12 9 -19 16 -15 16 5 0 2 7 -7 15
-8 8 -20 15 -26 15 -6 0 -9 4 -6 9 3 5 -7 19 -23 32 -16 13 -28 26 -26 29 3 6
-27 36 -35 33 -3 -1 -21 13 -40 30 -19 18 -35 30 -35 27 0 -3 -8 2 -17 10 -9
8 -14 18 -11 23 2 4 1 6 -4 5 -11 -4 -93 44 -88 52 2 3 -6 7 -17 7 -12 1 -24
6 -27 11 -7 10 -79 44 -85 40 -2 -2 -13 6 -25 16 -12 11 -21 16 -21 12 0 -3
-13 0 -30 9 -16 8 -33 16 -37 16 -5 1 -19 6 -33 11 -14 5 -34 11 -45 13 -11 1
-27 5 -35 8 -20 8 -67 18 -110 22 -19 2 -51 7 -70 10 -31 5 -4169 13 -4174 8z
m5140 -5958 c3 -21 -13 -28 -20 -10 -3 8 -1 15 5 15 6 0 7 6 3 13 -4 6 -3 8 1
4 5 -4 10 -14 11 -22z m-6088 -75 c6 0 12 -4 12 -9 0 -16 -29 -6 -50 17 -12
12 -25 22 -30 22 -5 0 -7 7 -3 16 5 14 11 11 32 -15 14 -17 32 -31 39 -31z
m6032 -10 c0 -5 -5 -12 -10 -15 -6 -4 -8 -11 -4 -16 3 -6 -5 -22 -17 -36 -13
-13 -23 -28 -21 -31 2 -4 -1 -8 -6 -10 -5 -1 -9 3 -10 10 0 7 -3 23 -6 36 -3
13 -1 20 5 17 5 -4 9 -1 9 4 0 6 7 11 16 11 10 0 14 5 10 16 -4 10 -2 13 6 8
7 -5 9 -2 5 9 -4 11 -2 14 9 10 7 -3 14 -9 14 -13z m-5986 -36 c9 -3 16 -12
16 -20 0 -8 3 -13 8 -11 4 1 7 0 7 -3 0 -11 30 -38 38 -33 4 2 6 -1 5 -9 -2
-7 3 -12 10 -10 6 1 11 -1 10 -5 -2 -5 1 -9 5 -10 17 -4 45 -49 41 -66 -2 -11
2 -17 9 -14 7 2 11 12 9 21 -3 16 -1 16 15 -1 17 -16 17 -19 3 -31 -13 -11
-13 -11 3 -6 10 4 17 1 17 -6 0 -6 5 -8 13 -4 8 5 8 2 -2 -9 -17 -22 -35 -22
-27 -1 5 14 4 15 -8 5 -12 -10 -19 -5 -41 23 -15 20 -31 33 -36 30 -5 -3 -6 3
-2 12 4 10 2 15 -4 11 -14 -9 -55 23 -49 38 2 7 -4 21 -14 30 -11 10 -17 22
-14 26 3 5 0 9 -5 9 -6 0 -11 -4 -11 -10 0 -5 -5 -10 -12 -10 -6 0 -4 8 6 19
17 18 17 20 -1 30 -20 11 -14 14 11 5z m5891 -44 c-3 -5 0 -10 7 -10 8 0 14
-8 15 -18 1 -13 -6 -18 -28 -18 -28 -2 -36 6 -22 19 3 4 12 2 20 -4 9 -8 13
-8 13 -1 0 6 -5 14 -10 17 -10 6 -5 25 6 25 3 0 2 -4 -1 -10z m-27 -94 c-20
-19 -30 -9 -17 16 8 14 14 17 21 10 8 -8 6 -15 -4 -26z m-238 -204 c0 -4 -9
-8 -19 -8 -15 0 -17 3 -9 13 10 12 28 9 28 -5z m-5255 -5 c3 -4 2 -5 -2 -2 -3
3 -14 -2 -23 -10 -14 -13 -16 -12 -16 4 0 17 29 23 41 8z m49 -43 c9 -3 16
-11 16 -17 0 -6 -3 -7 -7 -4 -3 4 -13 2 -20 -5 -11 -9 -16 -9 -23 2 -6 9 -4
17 3 22 15 9 12 9 31 2z m4941 -23 c-4 -9 -10 -22 -13 -30 -4 -10 -1 -12 9 -7
8 4 -1 -6 -19 -24 -27 -25 -36 -29 -48 -19 -11 9 -14 9 -14 -1 0 -6 -5 -10
-11 -8 -17 6 -11 23 9 23 34 0 51 29 29 51 -4 4 -7 12 -7 18 0 5 7 1 16 -10
12 -14 14 -15 11 -3 -4 13 0 16 16 12 22 -5 22 -5 2 10 -20 16 -20 16 3 10 16
-4 21 -10 17 -22z m-4845 -31 c0 -5 -7 -10 -15 -10 -8 0 -15 5 -15 10 0 6 7
10 15 10 8 0 15 -4 15 -10z m327 -19 c12 10 14 10 9 2 -4 -7 -3 -13 1 -13 5 0
15 6 22 13 11 10 12 9 6 -2 -6 -11 -4 -13 10 -8 11 5 23 1 32 -10 13 -17 14
-16 8 7 -5 21 -4 22 5 8 11 -19 44 -13 33 6 -4 6 0 6 9 -2 9 -7 18 -9 20 -5 3
4 3 3 2 -4 -2 -7 1 -15 6 -18 6 -4 10 -1 10 5 0 6 5 8 11 4 8 -5 8 -9 -1 -14
-9 -5 -8 -9 3 -13 18 -7 18 30 -1 41 -6 5 12 8 42 8 30 -1 52 -4 49 -8 -6 -11
5 -10 29 3 12 6 18 7 14 1 -3 -5 1 -12 9 -16 18 -6 30 10 13 18 -7 3 -4 4 7 3
11 -1 24 -6 28 -12 6 -6 10 -6 14 3 2 6 9 12 15 12 7 0 7 -4 1 -12 -15 -19
-12 -50 4 -44 7 3 12 0 10 -7 -1 -7 5 -11 13 -9 12 3 12 1 3 -9 -17 -17 -56
-20 -42 -3 7 8 6 14 -2 20 -8 4 -9 3 -5 -4 4 -7 2 -12 -3 -12 -6 0 -11 5 -11
12 0 6 -6 3 -14 -8 -13 -17 -15 -17 -21 -3 -5 15 -10 13 -32 -9 l-26 -26 -22
26 c-17 20 -26 23 -34 15 -8 -8 -11 -7 -11 3 0 9 -4 8 -14 -5 -12 -16 -16 -17
-29 -6 -9 7 -22 9 -28 5 -8 -5 -9 -3 -5 5 5 7 14 10 22 7 16 -6 19 10 4 19
-10 6 -50 -29 -50 -44 0 -5 -11 -8 -24 -7 -13 0 -22 4 -20 7 2 4 -3 9 -11 13
-8 3 -17 1 -20 -4 -4 -6 -11 -10 -16 -10 -6 0 -8 4 -5 9 3 5 -1 14 -9 21 -12
10 -16 9 -21 -4 -5 -13 -9 -13 -25 7 l-19 22 -20 -24 c-11 -13 -23 -22 -25
-19 -3 3 10 22 30 43 19 22 35 44 36 49 0 6 5 0 10 -13 8 -20 11 -22 26 -10z
m3978 -8 c-11 -7 -15 -13 -11 -13 5 0 3 -6 -4 -14 -9 -12 -8 -15 9 -13 13 1
20 6 16 15 -2 7 2 15 10 18 8 4 13 9 11 13 -2 3 14 6 37 7 46 0 73 -22 55 -43
-7 -9 -4 -11 11 -10 25 2 26 6 6 34 -15 22 -4 26 23 10 7 -5 12 -3 12 5 0 8 5
6 11 -4 5 -10 15 -18 21 -18 7 0 6 5 -2 15 -9 10 -9 15 -1 15 10 0 15 -13 12
-32 -2 -11 17 -10 24 1 3 5 1 12 -5 16 -5 3 -10 11 -10 18 0 6 7 1 16 -12 14
-19 14 -25 3 -32 -8 -5 -21 -6 -31 -3 -9 2 -19 0 -23 -6 -3 -6 -11 -8 -16 -5
-5 3 -6 -2 -2 -11 5 -14 8 -15 17 -3 6 8 19 13 29 11 20 -4 23 -18 5 -20 -7
-1 -25 -3 -40 -6 -19 -3 -31 1 -38 12 -7 13 -9 14 -10 2 0 -10 -3 -11 -11 -3
-9 9 -17 6 -30 -12 -22 -27 -55 -24 -65 7 -5 16 -8 18 -15 7 -7 -12 -9 -12 -9
0 0 11 -5 10 -20 -4 -12 -10 -33 -20 -48 -20 -15 -1 -34 -4 -42 -6 -11 -3 -14
3 -12 21 l2 25 -18 -27 c-14 -21 -21 -25 -30 -16 -8 8 -15 8 -25 0 -10 -8 -21
-6 -45 8 -20 13 -34 16 -38 9 -4 -7 -10 -7 -17 0 -7 7 -15 3 -27 -11 l-17 -22
-25 25 c-22 22 -27 23 -36 10 -8 -14 -12 -12 -22 12 -7 15 -17 27 -22 27 -4 0
-8 5 -8 11 0 8 5 8 15 -1 16 -14 21 0 5 16 -6 6 9 9 40 9 39 0 51 -3 56 -17 3
-10 10 -18 15 -18 12 0 12 13 -1 26 -6 6 4 10 30 10 22 0 40 -4 40 -9 0 -5 8
-3 17 4 9 8 14 9 10 3 -4 -7 0 -14 8 -18 18 -6 30 10 13 18 -7 3 -4 4 7 3 11
-1 24 -6 28 -12 6 -6 10 -6 14 3 2 6 9 12 15 12 7 0 7 -4 1 -12 -17 -21 -11
-47 8 -45 22 1 33 25 20 41 -7 8 -4 12 8 12 13 0 16 -6 13 -25 -3 -16 -1 -22
7 -17 6 4 9 11 6 16 -3 4 3 14 12 21 9 8 14 9 10 3 -4 -7 -1 -14 6 -17 16 -6
49 17 39 28 -4 5 -1 5 7 0 12 -7 11 -10 -4 -22z m614 6 c-7 -4 -17 -5 -22 -2
-5 3 -3 9 4 14 7 4 17 5 22 2 5 -3 3 -9 -4 -14z m-2383 -11 c3 -10 10 -18 15
-18 12 0 12 13 -1 26 -7 7 -6 11 4 11 8 0 13 -4 11 -8 -3 -4 2 -9 10 -13 18
-6 30 10 13 18 -7 3 -4 4 7 3 11 -1 24 -6 28 -12 6 -6 10 -6 14 3 2 6 9 12 15
12 7 0 7 -4 1 -12 -15 -19 -12 -50 4 -44 7 3 12 0 10 -7 -1 -7 5 -11 13 -9 12
3 12 1 3 -9 -20 -20 -55 -18 -61 3 -4 17 -5 17 -17 1 -7 -9 -11 -23 -8 -30 3
-7 0 -13 -6 -13 -14 0 -51 36 -51 50 0 6 -5 10 -11 10 -5 0 -7 -6 -3 -12 5
-10 4 -10 -6 -1 -10 9 -17 7 -30 -10 l-18 -22 -19 32 c-10 18 -21 33 -25 33
-5 0 -8 5 -8 11 0 8 5 8 15 -1 16 -14 21 0 5 16 -6 6 9 9 40 9 39 0 51 -3 56
-17z m800 0 c3 -10 10 -18 15 -18 12 0 12 13 -1 26 -6 6 4 10 30 10 22 0 40
-4 40 -9 0 -5 8 -3 17 4 9 8 14 9 10 3 -4 -7 0 -14 8 -18 18 -6 30 10 13 18
-7 3 -4 4 7 3 11 -1 24 -6 28 -12 6 -6 10 -6 14 3 2 6 9 12 15 12 7 0 7 -4 1
-12 -17 -21 -11 -47 8 -45 22 1 33 25 20 41 -7 8 -4 12 8 12 13 0 16 -6 13
-24 -3 -16 0 -22 9 -20 8 2 12 -3 10 -12 -2 -8 -4 -20 -4 -26 0 -6 -5 -11 -11
-11 -6 0 -18 -2 -26 -4 -11 -3 -14 3 -12 21 l2 25 -18 -27 c-14 -21 -21 -25
-30 -16 -8 8 -15 8 -25 0 -10 -8 -21 -6 -45 8 -20 13 -34 16 -38 9 -4 -7 -10
-7 -17 0 -7 7 -15 3 -27 -11 l-17 -22 -25 25 c-22 22 -27 23 -36 10 -8 -14
-12 -12 -22 12 -7 15 -17 27 -22 27 -4 0 -8 5 -8 11 0 8 5 8 15 -1 16 -14 21
0 5 16 -6 6 9 9 40 9 39 0 51 -3 56 -17z m-3206 6 c0 -8 -19 -13 -24 -6 -3 5
1 9 9 9 8 0 15 -2 15 -3z m625 -14 c3 -5 1 -10 -4 -10 -6 0 -11 5 -11 10 0 6
2 10 4 10 3 0 8 -4 11 -10z m480 0 c3 -5 1 -10 -4 -10 -6 0 -11 5 -11 10 0 6
2 10 4 10 3 0 8 -4 11 -10z m240 0 c3 -5 1 -10 -4 -10 -6 0 -11 5 -11 10 0 6
2 10 4 10 3 0 8 -4 11 -10z m240 0 c3 -5 1 -10 -4 -10 -6 0 -11 5 -11 10 0 6
2 10 4 10 3 0 8 -4 11 -10z m480 0 c3 -5 1 -10 -4 -10 -6 0 -11 5 -11 10 0 6
2 10 4 10 3 0 8 -4 11 -10z m480 0 c3 -5 1 -10 -4 -10 -6 0 -11 5 -11 10 0 6
2 10 4 10 3 0 8 -4 11 -10z m240 0 c3 -5 1 -10 -4 -10 -6 0 -11 5 -11 10 0 6
2 10 4 10 3 0 8 -4 11 -10z m640 0 c3 -5 1 -10 -4 -10 -6 0 -11 5 -11 10 0 6
2 10 4 10 3 0 8 -4 11 -10z m640 0 c3 -5 1 -10 -4 -10 -6 0 -11 5 -11 10 0 6
2 10 4 10 3 0 8 -4 11 -10z m414 -37 c-6 -7 -15 -10 -20 -7 -13 8 -3 21 15 21
12 0 13 -4 5 -14z m-2873 -9 c-5 -14 -4 -15 9 -4 8 7 15 8 15 2 0 -22 -26 -32
-46 -16 -10 8 -13 13 -6 9 6 -3 15 1 18 9 3 9 8 16 11 16 3 0 2 -7 -1 -16z
m227 1 c9 0 17 -4 18 -10 1 -18 -18 -16 -42 5 -13 12 -17 18 -9 13 8 -4 23 -8
33 -8z m170 0 c15 0 26 -4 25 -10 -5 -18 -36 -15 -60 6 -12 11 -16 17 -8 12 8
-4 27 -8 43 -8z m688 0 c15 3 17 -6 10 -33 -1 -1 -15 5 -31 13 -17 9 -28 20
-24 26 3 6 10 6 17 1 7 -5 19 -8 28 -7z m129 -10 c14 -19 14 -19 -2 -6 -10 7
-18 18 -18 24 0 6 1 8 3 6 1 -2 9 -13 17 -24z m166 -1 c2 -12 -1 -13 -12 -3
-7 6 -11 16 -8 21 7 11 17 3 20 -18z m640 0 c2 -12 -1 -13 -12 -3 -7 6 -11 16
-8 21 7 11 17 3 20 -18z m-1868 8 c8 -6 2 -9 -18 -9 -20 0 -26 3 -18 9 7 4 15
8 18 8 3 0 11 -4 18 -8z m168 -8 c18 -15 18 -15 -3 -5 -12 6 -30 8 -40 5 -15
-5 -15 -4 -3 5 20 14 23 14 46 -5z m194 -4 c0 11 4 11 17 -3 9 -9 14 -19 11
-23 -10 -9 -45 13 -52 33 -5 15 -4 15 9 -1 10 -14 15 -15 15 -6z m634 -5 c-4
-8 -11 -12 -16 -9 -6 4 -5 10 3 15 19 12 19 11 13 -6z m-764 -21 c0 -8 -4 -12
-10 -9 -5 3 -10 10 -10 16 0 5 5 9 10 9 6 0 10 -7 10 -16z m901 -7 c-10 -9
-11 -8 -5 6 3 10 9 15 12 12 3 -3 0 -11 -7 -18z m640 0 c-10 -9 -11 -8 -5 6 3
10 9 15 12 12 3 -3 0 -11 -7 -18z"/>
<path d="M6472 794 c-12 -8 -20 -20 -16 -25 7 -12 21 -3 34 22 13 23 11 23
-18 3z"/>
<path d="M556 761 c-3 -4 3 -16 14 -26 11 -10 17 -21 15 -25 -2 -4 3 -14 13
-23 17 -15 21 -17 43 -17 5 0 8 -4 5 -9 -3 -5 1 -14 8 -20 11 -10 14 -9 12 3
-1 8 -25 35 -54 61 -29 26 -50 51 -46 56 3 5 3 9 0 9 -3 0 -7 -4 -10 -9z m55
-68 c13 -16 12 -17 -3 -4 -10 7 -18 15 -18 17 0 8 8 3 21 -13z"/>
<path d="M691 616 c-9 -11 -9 -16 1 -22 7 -4 10 -4 6 1 -4 4 -3 14 3 22 6 7 9
13 6 13 -2 0 -10 -6 -16 -14z"/>
<path d="M5860 365 c-9 -11 -9 -15 -1 -15 7 0 9 -5 5 -12 -4 -7 -3 -10 1 -5 8
6 16 47 10 47 -2 0 -8 -7 -15 -15z"/>
<path d="M1326 331 c-3 -4 3 -16 13 -25 13 -12 21 -14 26 -6 5 8 11 7 22 -2 8
-7 25 -12 38 -13 12 0 29 -6 38 -13 12 -10 17 -10 23 -1 4 7 3 9 -4 5 -6 -3
-13 -2 -17 4 -3 5 2 10 12 10 25 1 57 26 44 35 -6 3 -11 1 -11 -6 0 -7 -3 -9
-6 -6 -4 3 -15 2 -24 -3 -13 -7 -21 -5 -30 5 -11 13 -14 13 -26 -2 -8 -10 -14
-13 -13 -8 3 22 -2 27 -16 15 -12 -10 -15 -10 -15 1 0 12 -2 12 -9 1 -7 -11
-9 -11 -14 2 -7 17 -23 21 -31 7z m28 -17 c3 -8 2 -12 -4 -9 -6 3 -10 10 -10
16 0 14 7 11 14 -7z m53 -9 c0 -8 -4 -12 -9 -9 -5 3 -6 10 -3 15 9 13 12 11
12 -6z m47 -3 c3 -5 -1 -9 -9 -9 -8 0 -12 4 -9 9 3 4 7 8 9 8 2 0 6 -4 9 -8z"/>
<path d="M1590 324 c0 -22 4 -29 18 -29 7 0 17 -7 22 -15 5 -8 12 -11 16 -7 4
4 13 2 20 -4 9 -8 16 -4 25 12 11 21 13 21 24 6 12 -16 13 -16 19 -1 3 9 3 21
0 27 -3 7 1 4 9 -6 8 -10 18 -14 21 -9 10 17 -22 36 -37 23 -8 -6 -17 -8 -20
-4 -4 3 -9 -2 -13 -11 -3 -9 -11 -13 -16 -10 -6 4 -5 10 3 15 7 4 10 11 6 16
-5 4 -12 1 -18 -7 -7 -13 -10 -13 -18 -1 -12 19 -61 23 -61 5z m68 -23 c12 -6
22 -17 22 -24 0 -8 -3 -8 -9 2 -5 7 -14 11 -19 7 -6 -4 -16 2 -21 13 -12 22
-15 42 -3 25 4 -6 17 -16 30 -23z"/>
<path d="M1555 280 c-3 -5 -1 -10 4 -10 6 0 11 5 11 10 0 6 -2 10 -4 10 -3 0
-8 -4 -11 -10z"/>
<path d="M4947 314 c-5 -30 8 -52 17 -27 7 17 8 17 22 -1 18 -25 40 -28 55
-10 8 10 15 11 24 4 18 -15 31 6 15 25 -6 8 -7 16 -2 19 11 7 34 -18 30 -32
-2 -5 0 -9 3 -8 4 0 16 -7 26 -17 19 -16 21 -16 38 3 10 11 22 17 27 14 6 -4
5 -10 -3 -15 -10 -6 -10 -9 -2 -9 16 0 26 17 13 25 -6 4 -8 10 -5 15 8 13 -23
33 -37 24 -7 -5 -17 -9 -22 -9 -5 0 -11 -6 -14 -13 -4 -14 19 -13 29 1 3 5 9
2 12 -6 4 -10 -2 -13 -21 -12 -21 1 -26 6 -25 22 1 11 -3 20 -10 21 -7 1 -24
3 -40 6 -15 2 -25 1 -22 -4 3 -4 2 -15 -1 -24 -5 -12 -9 -13 -24 -4 -10 7 -16
16 -14 20 3 4 -1 9 -8 9 -7 1 -23 3 -35 4 -15 2 -22 -4 -26 -21z m77 -18 c15
-10 16 -15 6 -21 -9 -5 -11 -4 -6 3 4 7 2 12 -3 12 -6 0 -11 -6 -11 -12 -1 -7
-7 -2 -15 12 -18 31 -19 44 -2 30 6 -6 21 -17 31 -24z m164 -1 c-3 -3 -9 2
-12 12 -6 14 -5 15 5 6 7 -7 10 -15 7 -18z m-18 -21 c0 -8 -19 -13 -24 -6 -3
5 1 9 9 9 8 0 15 -2 15 -3z"/>
<path d="M5389 324 c-13 -7 -18 -13 -10 -14 8 0 11 -3 8 -6 -13 -13 13 -43 34
-39 25 5 61 47 49 59 -14 14 -55 15 -81 0z m47 -22 c-5 18 9 34 18 20 8 -13
-18 -45 -38 -48 -9 -1 -14 2 -10 7 3 5 -1 9 -8 10 -10 0 -10 2 0 6 6 2 12 12
12 21 1 12 5 10 16 -8 8 -14 13 -17 10 -8z"/>
<path d="M5506 326 c3 -9 10 -16 15 -16 5 0 11 0 14 0 8 0 6 15 -2 15 -5 0
-14 4 -20 8 -9 6 -11 3 -7 -7z"/>
<path d="M5294 322 c6 -10 -22 -39 -33 -34 -3 1 -6 -3 -6 -10 0 -17 35 -19 42
-2 3 8 10 14 15 14 6 0 7 -7 4 -16 -3 -9 -2 -12 5 -9 6 4 8 13 5 20 -2 7 -1
16 2 21 4 5 6 8 3 7 -2 -1 -13 2 -24 8 -11 7 -17 7 -13 1z m-1 -37 c-3 -9 -8
-14 -10 -11 -3 3 -2 9 2 15 9 16 15 13 8 -4z"/>
<path d="M3507 314 c-2 -13 1 -32 8 -41 11 -15 13 -15 24 4 6 12 8 30 4 39 -6
16 -5 17 9 4 9 -8 14 -18 11 -22 -2 -4 3 -5 11 -2 9 4 20 -5 30 -23 8 -15 15
-22 16 -15 0 7 4 11 9 7 13 -7 34 32 26 48 -4 6 2 1 13 -13 11 -13 18 -29 15
-34 -3 -5 -1 -6 6 -2 8 6 9 12 2 20 -6 7 -9 15 -6 18 3 3 -1 11 -10 18 -11 9
-18 10 -28 1 -8 -6 -17 -8 -20 -4 -4 3 -9 -1 -13 -10 -5 -13 -9 -14 -24 -5
-10 7 -16 16 -14 20 3 4 -1 9 -8 9 -7 1 -23 3 -35 4 -15 2 -22 -4 -26 -21z
m134 -31 c-8 -14 -10 -14 -11 -3 0 13 -1 13 -11 0 -9 -13 -10 -13 -6 0 2 8 10
14 16 13 6 -2 11 2 11 9 0 6 3 9 6 5 3 -3 1 -14 -5 -24z m-108 0 c-3 -7 -6
-13 -8 -13 -2 0 -5 6 -8 13 -3 8 1 14 8 14 7 0 11 -6 8 -14z"/>
<path d="M4307 314 c-5 -30 8 -52 17 -27 7 17 8 17 22 -1 18 -25 40 -28 55
-10 8 10 15 11 24 4 18 -15 31 6 15 25 -6 8 -7 16 -2 19 11 7 34 -18 30 -32
-2 -5 0 -9 3 -8 4 0 16 -7 26 -17 19 -16 21 -16 38 3 10 11 22 17 27 14 6 -4
5 -10 -3 -15 -10 -6 -10 -9 -2 -9 16 0 26 17 13 25 -6 4 -8 10 -5 15 8 13 -23
33 -37 24 -7 -5 -17 -9 -22 -9 -5 0 -11 -6 -14 -13 -4 -14 19 -13 29 1 3 5 9
2 12 -6 4 -10 -2 -13 -21 -12 -21 1 -26 6 -25 22 1 11 -3 20 -10 21 -7 1 -24
3 -40 6 -15 2 -25 1 -22 -4 3 -4 2 -15 -1 -24 -5 -12 -9 -13 -24 -4 -10 7 -16
16 -14 20 3 4 -1 9 -8 9 -7 1 -23 3 -35 4 -15 2 -22 -4 -26 -21z m77 -18 c15
-10 16 -15 6 -21 -9 -5 -11 -4 -6 3 4 7 2 12 -3 12 -6 0 -11 -6 -11 -12 -1 -7
-7 -2 -15 12 -18 31 -19 44 -2 30 6 -6 21 -17 31 -24z m164 -1 c-3 -3 -9 2
-12 12 -6 14 -5 15 5 6 7 -7 10 -15 7 -18z m-18 -21 c0 -8 -19 -13 -24 -6 -3
5 1 9 9 9 8 0 15 -2 15 -3z"/>
<path d="M4613 287 c-3 -5 -1 -13 5 -19 7 -7 13 -4 21 9 8 15 7 20 -5 20 -8 0
-17 -4 -21 -10z"/>
<path d="M216 5782 c-3 -5 1 -9 9 -9 8 0 12 4 9 9 -3 4 -7 8 -9 8 -2 0 -6 -4
-9 -8z"/>
<path d="M190 5697 c0 -2 6 -10 14 -16 11 -9 16 -9 22 1 4 7 4 10 -1 6 -4 -4
-14 -3 -22 3 -7 6 -13 9 -13 6z"/>
<path d="M6816 5618 c3 -5 10 -6 15 -3 13 9 11 12 -6 12 -8 0 -12 -4 -9 -9z"/>
<path d="M6793 5575 c0 -8 4 -12 9 -9 5 3 6 10 3 15 -9 13 -12 11 -12 -6z"/>
<path d="M6820 5555 c-7 -9 -11 -17 -9 -20 3 -2 10 5 17 15 14 24 10 26 -8 5z"/>
<path d="M6799 5493 c-12 -16 -12 -17 2 -6 9 7 20 9 24 5 5 -4 5 -1 1 6 -9 16
-11 15 -27 -5z"/>
<path d="M195 5430 c-4 -6 -12 -7 -18 -4 -7 4 -9 3 -4 -1 4 -5 18 -10 30 -11
12 -2 16 0 9 2 -6 3 -10 10 -6 15 3 5 3 9 0 9 -3 0 -8 -5 -11 -10z"/>
<path d="M194 5360 c0 -17 3 -30 7 -30 8 0 6 47 -3 55 -2 3 -4 -9 -4 -25z"/>
<path d="M6810 5379 c0 -5 5 -7 10 -4 6 3 10 8 10 11 0 2 -4 4 -10 4 -5 0 -10
-5 -10 -11z"/>
<path d="M149 5343 c-13 -16 -12 -17 4 -4 16 13 21 21 13 21 -2 0 -10 -8 -17
-17z"/>
<path d="M6799 5293 c-12 -16 -12 -17 2 -6 9 7 20 9 24 5 5 -4 5 -1 1 6 -9 16
-11 15 -27 -5z"/>
<path d="M150 5286 c0 -2 7 -7 16 -10 8 -3 12 -2 9 4 -6 10 -25 14 -25 6z"/>
<path d="M6787 5253 c3 -7 6 -13 8 -13 2 0 5 6 8 13 3 8 -1 14 -8 14 -7 0 -11
-6 -8 -14z"/>
<path d="M196 5143 c-6 -14 -5 -15 5 -6 7 7 10 15 7 18 -3 3 -9 -2 -12 -12z"/>
<path d="M206 5122 c-3 -5 1 -9 9 -9 8 0 15 4 15 9 0 4 -4 8 -9 8 -6 0 -12 -4
-15 -8z"/>
<path d="M6774 5104 c0 -13 4 -20 8 -18 5 3 6 9 3 14 -3 5 3 13 12 19 16 9 16
10 -2 8 -15 -1 -21 -8 -21 -23z"/>
<path d="M6826 5122 c-3 -5 1 -9 9 -9 8 0 12 4 9 9 -3 4 -7 8 -9 8 -2 0 -6 -4
-9 -8z"/>
<path d="M6790 5060 c0 -5 5 -10 11 -10 5 0 7 5 4 10 -3 6 -8 10 -11 10 -2 0
-4 -4 -4 -10z"/>
<path d="M196 5023 c-6 -14 -5 -15 5 -6 7 7 10 15 7 18 -3 3 -9 -2 -12 -12z"/>
<path d="M6816 5007 c3 -10 9 -15 12 -12 3 3 0 11 -7 18 -10 9 -11 8 -5 -6z"/>
<path d="M210 4999 c0 -5 5 -7 10 -4 6 3 10 8 10 11 0 2 -4 4 -10 4 -5 0 -10
-5 -10 -11z"/>
<path d="M194 4960 c0 -17 3 -30 7 -30 8 0 6 47 -3 55 -2 3 -4 -9 -4 -25z"/>
<path d="M6794 4922 c3 -5 0 -13 -6 -15 -9 -4 -10 -6 -1 -6 17 -1 25 16 12 25
-7 4 -9 3 -5 -4z"/>
<path d="M150 4860 c0 -5 5 -10 11 -10 5 0 7 5 4 10 -3 6 -8 10 -11 10 -2 0
-4 -4 -4 -10z"/>
<path d="M194 4800 c0 -17 3 -30 7 -30 8 0 6 47 -3 55 -2 3 -4 -9 -4 -25z"/>
<path d="M6813 4765 c0 -8 4 -12 9 -9 5 3 6 10 3 15 -9 13 -12 11 -12 -6z"/>
<path d="M197 4747 c-3 -8 1 -14 8 -14 7 0 11 6 8 14 -3 7 -6 13 -8 13 -2 0
-5 -6 -8 -13z"/>
<path d="M6790 4740 c0 -5 5 -10 11 -10 5 0 7 5 4 10 -3 6 -8 10 -11 10 -2 0
-4 -4 -4 -10z"/>
<path d="M6816 4687 c3 -10 9 -15 12 -12 3 3 0 11 -7 18 -10 9 -11 8 -5 -6z"/>
<path d="M196 4663 c-6 -14 -5 -15 5 -6 7 7 10 15 7 18 -3 3 -9 -2 -12 -12z"/>
<path d="M206 4642 c-3 -5 1 -9 9 -9 8 0 15 4 15 9 0 4 -4 8 -9 8 -6 0 -12 -4
-15 -8z"/>
<path d="M6794 4602 c3 -5 0 -13 -6 -15 -9 -4 -10 -6 -1 -6 17 -1 25 16 12 25
-7 4 -9 3 -5 -4z"/>
<path d="M195 4590 c-4 -6 -11 -7 -17 -4 -7 4 -8 2 -4 -5 6 -9 11 -9 21 -1 8
7 20 8 26 4 8 -4 9 -3 5 4 -9 15 -23 15 -31 2z"/>
<path d="M195 4470 c-3 -5 -1 -10 4 -10 6 0 11 5 11 10 0 6 -2 10 -4 10 -3 0
-8 -4 -11 -10z"/>
<path d="M6813 4445 c0 -8 4 -12 9 -9 5 3 6 10 3 15 -9 13 -12 11 -12 -6z"/>
<path d="M210 4439 c0 -5 5 -7 10 -4 6 3 10 8 10 11 0 2 -4 4 -10 4 -5 0 -10
-5 -10 -11z"/>
<path d="M194 4400 c0 -17 3 -30 7 -30 8 0 6 47 -3 55 -2 3 -4 -9 -4 -25z"/>
<path d="M6790 4420 c0 -5 5 -10 11 -10 5 0 7 5 4 10 -3 6 -8 10 -11 10 -2 0
-4 -4 -4 -10z"/>
<path d="M150 4380 c0 -5 5 -10 11 -10 5 0 7 5 4 10 -3 6 -8 10 -11 10 -2 0
-4 -4 -4 -10z"/>
<path d="M6816 4367 c3 -10 9 -15 12 -12 3 3 0 11 -7 18 -10 9 -11 8 -5 -6z"/>
<path d="M193 4315 c0 -8 4 -12 9 -9 5 3 6 10 3 15 -9 13 -12 11 -12 -6z"/>
<path d="M6794 4282 c3 -5 0 -13 -6 -15 -9 -4 -10 -6 -1 -6 17 -1 25 16 12 25
-7 4 -9 3 -5 -4z"/>
<path d="M196 4183 c-6 -14 -5 -15 5 -6 7 7 10 15 7 18 -3 3 -9 -2 -12 -12z"/>
<path d="M206 4162 c-3 -5 1 -9 9 -9 8 0 15 4 15 9 0 4 -4 8 -9 8 -6 0 -12 -4
-15 -8z"/>
<path d="M6813 4125 c0 -8 4 -12 9 -9 5 3 6 10 3 15 -9 13 -12 11 -12 -6z"/>
<path d="M6790 4100 c0 -5 5 -10 11 -10 5 0 7 5 4 10 -3 6 -8 10 -11 10 -2 0
-4 -4 -4 -10z"/>
<path d="M196 4063 c-6 -14 -5 -15 5 -6 7 7 10 15 7 18 -3 3 -9 -2 -12 -12z"/>
<path d="M6816 4047 c3 -10 9 -15 12 -12 3 3 0 11 -7 18 -10 9 -11 8 -5 -6z"/>
<path d="M210 4039 c0 -5 5 -7 10 -4 6 3 10 8 10 11 0 2 -4 4 -10 4 -5 0 -10
-5 -10 -11z"/>
<path d="M194 4000 c0 -17 3 -30 7 -30 8 0 6 47 -3 55 -2 3 -4 -9 -4 -25z"/>
<path d="M6794 3962 c3 -5 0 -13 -6 -15 -9 -4 -10 -6 -1 -6 17 -1 25 16 12 25
-7 4 -9 3 -5 -4z"/>
<path d="M150 3900 c0 -5 5 -10 11 -10 5 0 7 5 4 10 -3 6 -8 10 -11 10 -2 0
-4 -4 -4 -10z"/>
<path d="M194 3840 c0 -17 3 -30 7 -30 8 0 6 47 -3 55 -2 3 -4 -9 -4 -25z"/>
<path d="M197 3787 c-3 -8 1 -14 8 -14 7 0 11 6 8 14 -3 7 -6 13 -8 13 -2 0
-5 -6 -8 -13z"/>
<path d="M196 3703 c-6 -14 -5 -15 5 -6 7 7 10 15 7 18 -3 3 -9 -2 -12 -12z"/>
<path d="M6799 3693 c-12 -16 -12 -17 2 -6 9 7 20 9 24 5 5 -4 5 -1 1 6 -9 16
-11 15 -27 -5z"/>
<path d="M206 3682 c-3 -5 1 -9 9 -9 8 0 15 4 15 9 0 4 -4 8 -9 8 -6 0 -12 -4
-15 -8z"/>
<path d="M6787 3653 c3 -7 6 -13 8 -13 2 0 5 6 8 13 3 8 -1 14 -8 14 -7 0 -11
-6 -8 -14z"/>
<path d="M195 3630 c-4 -6 -11 -7 -17 -4 -7 4 -8 2 -4 -5 6 -9 11 -9 21 -1 8
7 20 8 26 4 8 -4 9 -3 5 4 -9 15 -23 15 -31 2z"/>
<path d="M6826 3522 c-3 -5 1 -9 9 -9 8 0 12 4 9 9 -3 4 -7 8 -9 8 -2 0 -6 -4
-9 -8z"/>
<path d="M195 3510 c-3 -5 -1 -10 4 -10 6 0 11 5 11 10 0 6 -2 10 -4 10 -3 0
-8 -4 -11 -10z"/>
<path d="M210 3479 c0 -5 5 -7 10 -4 6 3 10 8 10 11 0 2 -4 4 -10 4 -5 0 -10
-5 -10 -11z"/>
<path d="M194 3440 c0 -17 3 -30 7 -30 8 0 6 47 -3 55 -2 3 -4 -9 -4 -25z"/>
<path d="M150 3420 c0 -5 5 -10 11 -10 5 0 7 5 4 10 -3 6 -8 10 -11 10 -2 0
-4 -4 -4 -10z"/>
<path d="M6788 3383 c7 -3 16 -2 19 1 4 3 -2 6 -13 5 -11 0 -14 -3 -6 -6z"/>
<path d="M193 3355 c0 -8 4 -12 9 -9 5 3 6 10 3 15 -9 13 -12 11 -12 -6z"/>
<path d="M6790 3300 c0 -5 5 -10 11 -10 5 0 7 5 4 10 -3 6 -8 10 -11 10 -2 0
-4 -4 -4 -10z"/>
<path d="M6816 3247 c3 -10 9 -15 12 -12 3 3 0 11 -7 18 -10 9 -11 8 -5 -6z"/>
<path d="M196 3223 c-6 -14 -5 -15 5 -6 7 7 10 15 7 18 -3 3 -9 -2 -12 -12z"/>
<path d="M206 3202 c-3 -5 1 -9 9 -9 8 0 15 4 15 9 0 4 -4 8 -9 8 -6 0 -12 -4
-15 -8z"/>
<path d="M6794 3162 c3 -5 0 -13 -6 -15 -9 -4 -10 -6 -1 -6 17 -1 25 16 12 25
-7 4 -9 3 -5 -4z"/>
<path d="M6790 3126 c0 -2 7 -7 16 -10 8 -3 12 -2 9 4 -6 10 -25 14 -25 6z"/>
<path d="M196 3103 c-6 -14 -5 -15 5 -6 7 7 10 15 7 18 -3 3 -9 -2 -12 -12z"/>
<path d="M210 3079 c0 -5 5 -7 10 -4 6 3 10 8 10 11 0 2 -4 4 -10 4 -5 0 -10
-5 -10 -11z"/>
<path d="M194 3040 c0 -17 3 -30 7 -30 8 0 6 47 -3 55 -2 3 -4 -9 -4 -25z"/>
<path d="M6790 3060 c0 -5 5 -10 11 -10 5 0 7 5 4 10 -3 6 -8 10 -11 10 -2 0
-4 -4 -4 -10z"/>
<path d="M6810 3016 c0 -2 8 -10 18 -17 15 -13 16 -12 3 4 -13 16 -21 21 -21
13z"/>
<path d="M150 2940 c0 -5 5 -10 11 -10 5 0 7 5 4 10 -3 6 -8 10 -11 10 -2 0
-4 -4 -4 -10z"/>
<path d="M194 2880 c0 -17 3 -30 7 -30 8 0 6 47 -3 55 -2 3 -4 -9 -4 -25z"/>
<path d="M6788 2903 c7 -3 16 -2 19 1 4 3 -2 6 -13 5 -11 0 -14 -3 -6 -6z"/>
<path d="M197 2827 c-3 -8 1 -14 8 -14 7 0 11 6 8 14 -3 7 -6 13 -8 13 -2 0
-5 -6 -8 -13z"/>
<path d="M196 2743 c-6 -14 -5 -15 5 -6 7 7 10 15 7 18 -3 3 -9 -2 -12 -12z"/>
<path d="M6799 2733 c-12 -16 -12 -17 2 -6 9 7 20 9 24 5 5 -4 5 -1 1 6 -9 16
-11 15 -27 -5z"/>
<path d="M206 2722 c-3 -5 1 -9 9 -9 8 0 15 4 15 9 0 4 -4 8 -9 8 -6 0 -12 -4
-15 -8z"/>
<path d="M6787 2693 c3 -7 6 -13 8 -13 2 0 5 6 8 13 3 8 -1 14 -8 14 -7 0 -11
-6 -8 -14z"/>
<path d="M195 2670 c-4 -6 -11 -7 -17 -4 -7 4 -8 2 -4 -5 6 -9 11 -9 21 -1 8
7 20 8 26 4 8 -4 9 -3 5 4 -9 15 -23 15 -31 2z"/>
<path d="M6774 2544 c0 -13 4 -20 8 -18 5 3 6 9 3 14 -3 5 3 13 12 19 16 9 16
10 -2 8 -15 -1 -21 -8 -21 -23z"/>
<path d="M6826 2562 c-3 -5 1 -9 9 -9 8 0 12 4 9 9 -3 4 -7 8 -9 8 -2 0 -6 -4
-9 -8z"/>
<path d="M195 2550 c-3 -5 -1 -10 4 -10 6 0 11 5 11 10 0 6 -2 10 -4 10 -3 0
-8 -4 -11 -10z"/>
<path d="M210 2519 c0 -5 5 -7 10 -4 6 3 10 8 10 11 0 2 -4 4 -10 4 -5 0 -10
-5 -10 -11z"/>
<path d="M194 2480 c0 -17 3 -30 7 -30 8 0 6 47 -3 55 -2 3 -4 -9 -4 -25z"/>
<path d="M6790 2500 c0 -5 5 -10 11 -10 5 0 7 5 4 10 -3 6 -8 10 -11 10 -2 0
-4 -4 -4 -10z"/>
<path d="M150 2460 c0 -5 5 -10 11 -10 5 0 7 5 4 10 -3 6 -8 10 -11 10 -2 0
-4 -4 -4 -10z"/>
<path d="M6816 2447 c3 -10 9 -15 12 -12 3 3 0 11 -7 18 -10 9 -11 8 -5 -6z"/>
<path d="M193 2395 c0 -8 4 -12 9 -9 5 3 6 10 3 15 -9 13 -12 11 -12 -6z"/>
<path d="M6794 2362 c3 -5 0 -13 -6 -15 -9 -4 -10 -6 -1 -6 17 -1 25 16 12 25
-7 4 -9 3 -5 -4z"/>
<path d="M196 2263 c-6 -14 -5 -15 5 -6 7 7 10 15 7 18 -3 3 -9 -2 -12 -12z"/>
<path d="M206 2242 c-3 -5 1 -9 9 -9 8 0 15 4 15 9 0 4 -4 8 -9 8 -6 0 -12 -4
-15 -8z"/>
<path d="M6813 2205 c0 -8 4 -12 9 -9 5 3 6 10 3 15 -9 13 -12 11 -12 -6z"/>
<path d="M6790 2180 c0 -5 5 -10 11 -10 5 0 7 5 4 10 -3 6 -8 10 -11 10 -2 0
-4 -4 -4 -10z"/>
<path d="M196 2143 c-6 -14 -5 -15 5 -6 7 7 10 15 7 18 -3 3 -9 -2 -12 -12z"/>
<path d="M6816 2127 c3 -10 9 -15 12 -12 3 3 0 11 -7 18 -10 9 -11 8 -5 -6z"/>
<path d="M210 2119 c0 -5 5 -7 10 -4 6 3 10 8 10 11 0 2 -4 4 -10 4 -5 0 -10
-5 -10 -11z"/>
<path d="M194 2080 c0 -17 3 -30 7 -30 8 0 6 47 -3 55 -2 3 -4 -9 -4 -25z"/>
<path d="M6794 2042 c3 -5 0 -13 -6 -15 -9 -4 -10 -6 -1 -6 17 -1 25 16 12 25
-7 4 -9 3 -5 -4z"/>
<path d="M150 1980 c0 -5 5 -10 11 -10 5 0 7 5 4 10 -3 6 -8 10 -11 10 -2 0
-4 -4 -4 -10z"/>
<path d="M194 1920 c0 -17 3 -30 7 -30 8 0 6 47 -3 55 -2 3 -4 -9 -4 -25z"/>
<path d="M197 1867 c-3 -8 1 -14 8 -14 7 0 11 6 8 14 -3 7 -6 13 -8 13 -2 0
-5 -6 -8 -13z"/>
<path d="M196 1783 c-6 -14 -5 -15 5 -6 7 7 10 15 7 18 -3 3 -9 -2 -12 -12z"/>
<path d="M206 1762 c-3 -5 1 -9 9 -9 8 0 15 4 15 9 0 4 -4 8 -9 8 -6 0 -12 -4
-15 -8z"/>
<path d="M6788 1743 c7 -3 16 -2 19 1 4 3 -2 6 -13 5 -11 0 -14 -3 -6 -6z"/>
<path d="M6810 1700 c0 -5 5 -10 11 -10 5 0 7 5 4 10 -3 6 -8 10 -11 10 -2 0
-4 -4 -4 -10z"/>
<path d="M176 1662 c-3 -4 4 -9 15 -9 23 -2 25 3 4 10 -8 4 -16 3 -19 -1z"/>
<path d="M202 1599 c-7 -11 -18 -17 -25 -13 -7 4 -9 3 -4 -1 11 -13 45 -16 52
-5 4 6 -1 7 -12 3 -16 -6 -16 -5 -4 10 8 10 12 19 10 22 -3 2 -10 -5 -17 -16z"/>
<path d="M6790 1526 c0 -2 7 -7 16 -10 8 -3 12 -2 9 4 -6 10 -25 14 -25 6z"/>
<path d="M216 1477 c4 -11 -2 -14 -20 -12 -15 2 -24 0 -21 -4 6 -11 48 -6 52
6 2 6 -1 14 -6 18 -6 3 -8 0 -5 -8z"/>
<path d="M6777 1463 c-3 -5 5 -8 18 -8 13 0 21 3 18 8 -2 4 -10 7 -18 7 -8 0
-16 -3 -18 -7z"/>
<path d="M6786 1442 c-3 -5 1 -9 9 -9 8 0 12 4 9 9 -3 4 -7 8 -9 8 -2 0 -6 -4
-9 -8z"/>
<path d="M196 1421 c-3 -5 1 -14 9 -21 8 -7 15 -9 15 -4 0 4 7 -1 15 -12 14
-18 14 -17 3 9 -8 20 -14 24 -20 15 -7 -12 -12 -4 -9 15 1 10 -7 9 -13 -2z"/>
<path d="M6770 1370 c-9 -6 -10 -10 -3 -10 6 0 15 5 18 10 8 12 4 12 -15 0z"/>
<path d="M213 1332 c0 -12 5 -22 9 -22 11 0 10 12 -2 30 -7 12 -9 10 -7 -8z"/>
<path d="M6816 1338 c3 -5 10 -6 15 -3 13 9 11 12 -6 12 -8 0 -12 -4 -9 -9z"/>
<path d="M6775 1319 c-4 -6 -5 -12 -2 -15 2 -3 7 2 10 11 7 17 1 20 -8 4z"/>
<path d="M6735 1290 c4 -6 1 -17 -5 -25 -7 -9 -8 -15 -2 -15 10 0 22 23 22 41
0 5 -5 9 -11 9 -5 0 -7 -5 -4 -10z"/>
<path d="M214 1283 c4 -4 16 -8 28 -10 28 -4 18 6 -12 12 -12 2 -20 1 -16 -2z"/>
<path d="M260 1254 c0 -13 18 -39 24 -34 2 3 -2 14 -10 24 -8 11 -14 16 -14
10z"/>
<path d="M6766 1242 c-3 -5 1 -9 9 -9 8 0 12 4 9 9 -3 4 -7 8 -9 8 -2 0 -6 -4
-9 -8z"/>
<path d="M6706 1208 c3 -4 9 -8 15 -8 5 0 9 4 9 8 0 5 -7 9 -15 9 -8 0 -12 -4
-9 -9z"/>
<path d="M250 1200 c0 -5 5 -10 10 -10 6 0 10 5 10 10 0 6 -4 10 -10 10 -5 0
-10 -4 -10 -10z"/>
<path d="M6759 1208 c-5 -18 -6 -38 -1 -34 7 8 12 36 6 36 -2 0 -4 -1 -5 -2z"/>
<path d="M6697 1183 c-3 -5 4 -15 16 -23 21 -12 21 -12 7 6 -8 10 -15 20 -16
22 -1 2 -4 -1 -7 -5z"/>
<path d="M255 1149 c-4 -6 -5 -12 -2 -15 2 -3 7 2 10 11 7 17 1 20 -8 4z"/>
<path d="M271 1127 c-13 -21 -12 -21 5 -5 10 10 16 20 13 22 -3 3 -11 -5 -18
-17z"/>
<path d="M6679 1133 c-13 -15 -12 -15 9 -4 23 12 28 21 13 21 -5 0 -15 -7 -22
-17z"/>
<path d="M6698 1122 c-28 -17 -55 -62 -38 -62 6 0 10 6 10 13 0 6 14 24 32 39
37 31 36 34 -4 10z"/>
<path d="M6693 1085 c-3 -9 -3 -18 -1 -21 3 -3 8 4 11 16 6 23 -1 27 -10 5z"/>
<path d="M310 1079 c0 -5 5 -7 10 -4 6 3 10 1 10 -4 0 -6 -5 -11 -12 -11 -6 0
-9 -3 -6 -6 4 -3 16 0 28 6 12 6 19 14 16 18 -12 11 -46 12 -46 1z"/>
<path d="M6713 1065 c0 -8 4 -15 9 -15 4 0 8 4 8 9 0 6 -4 12 -8 15 -5 3 -9
-1 -9 -9z"/>
<path d="M344 1028 c3 -13 5 -25 6 -28 2 -3 2 -8 1 -12 0 -5 4 -8 9 -8 14 0
13 13 -2 29 -11 12 -9 13 7 7 19 -6 19 -5 2 8 -14 10 -15 15 -5 19 8 4 7 6 -4
6 -13 1 -17 -5 -14 -21z"/>
<path d="M6675 1040 c3 -5 8 -10 11 -10 2 0 4 5 4 10 0 6 -5 10 -11 10 -5 0
-7 -4 -4 -10z"/>
<path d="M316 1027 c3 -10 9 -15 12 -12 3 3 0 11 -7 18 -10 9 -11 8 -5 -6z"/>
<path d="M276 1022 c-3 -4 4 -9 15 -9 23 -2 25 3 4 10 -8 4 -16 3 -19 -1z"/>
<path d="M6675 1009 c-4 -6 -5 -12 -2 -15 2 -3 7 2 10 11 7 17 1 20 -8 4z"/>
<path d="M346 922 c-3 -5 1 -9 9 -9 8 0 12 4 9 9 -3 4 -7 8 -9 8 -2 0 -6 -4
-9 -8z"/>
<path d="M6650 899 c0 -5 5 -7 10 -4 6 3 10 8 10 11 0 2 -4 4 -10 4 -5 0 -10
-5 -10 -11z"/>
<path d="M6605 879 c-4 -6 -5 -12 -2 -15 2 -3 7 2 10 11 7 17 1 20 -8 4z"/>
<path d="M6570 840 c0 -5 5 -10 10 -10 6 0 10 5 10 10 0 6 -4 10 -10 10 -5 0
-10 -4 -10 -10z"/>
<path d="M375 820 c-3 -5 -1 -10 4 -10 6 0 11 5 11 10 0 6 -2 10 -4 10 -3 0
-8 -4 -11 -10z"/>
<path d="M430 820 c-13 -8 -12 -10 3 -10 9 0 17 5 17 10 0 12 -1 12 -20 0z"/>
<path d="M6512 758 c2 -6 10 -13 16 -14 7 -1 8 0 2 3 -5 2 -8 9 -4 14 3 5 0 9
-6 9 -7 0 -10 -5 -8 -12z"/>
<path d="M6590 761 c0 -6 4 -13 10 -16 6 -3 7 1 4 9 -7 18 -14 21 -14 7z"/>
<path d="M480 720 c-12 -7 -10 -9 8 -7 12 0 22 5 22 9 0 11 -12 10 -30 -2z"/>
<path d="M515 700 c-3 -6 1 -13 9 -16 9 -3 14 -9 12 -13 -3 -4 4 -7 15 -7 19
0 19 1 3 13 -10 7 -22 13 -27 13 -4 0 -5 5 -2 10 3 6 4 10 1 10 -3 0 -8 -5
-11 -10z"/>
<path d="M6480 700 c8 -5 20 -10 25 -10 6 0 3 5 -5 10 -8 5 -19 10 -25 10 -5
0 -3 -5 5 -10z"/>
<path d="M6465 680 c3 -5 11 -10 16 -10 6 0 7 5 4 10 -3 6 -11 10 -16 10 -6 0
-7 -4 -4 -10z"/>
<path d="M558 643 c7 -3 16 -2 19 1 4 3 -2 6 -13 5 -11 0 -14 -3 -6 -6z"/>
<path d="M6411 647 c2 -1 13 -9 24 -17 19 -14 19 -14 6 3 -7 9 -18 17 -24 17
-6 0 -8 -1 -6 -3z"/>
<path d="M570 619 c0 -5 5 -7 10 -4 6 3 10 8 10 11 0 2 -4 4 -10 4 -5 0 -10
-5 -10 -11z"/>
<path d="M6395 601 c-3 -5 -2 -12 3 -15 5 -3 9 1 9 9 0 17 -3 19 -12 6z"/>
<path d="M6235 579 c-33 -17 -59 -59 -46 -72 9 -9 15 -7 24 8 7 11 12 25 12
32 0 7 9 19 20 27 23 18 19 19 -10 5z m-25 -54 c-7 -9 -15 -13 -19 -10 -3 3 1
10 9 15 21 14 24 12 10 -5z"/>
<path d="M746 561 c-16 -18 -13 -51 6 -51 5 0 6 5 3 10 -3 6 -3 16 2 23 7 12
13 37 9 37 -2 0 -10 -8 -20 -19z"/>
<path d="M6377 555 c-4 -8 -3 -16 1 -19 4 -3 9 4 9 15 2 23 -3 25 -10 4z"/>
<path d="M685 549 c-4 -6 -5 -12 -2 -15 2 -3 7 2 10 11 7 17 1 20 -8 4z"/>
<path d="M794 548 c-4 -7 -4 -10 1 -6 4 4 15 2 24 -5 14 -11 14 -10 2 6 -16
20 -18 21 -27 5z"/>
<path d="M700 515 c0 -8 2 -15 4 -15 2 0 6 7 10 15 3 8 1 15 -4 15 -6 0 -10
-7 -10 -15z"/>
<path d="M6150 520 c0 -5 5 -10 10 -10 6 0 10 5 10 10 0 6 -4 10 -10 10 -5 0
-10 -4 -10 -10z"/>
<path d="M700 486 c0 -2 8 -10 18 -17 15 -13 16 -12 3 4 -13 16 -21 21 -21 13z"/>
<path d="M6195 480 c3 -5 8 -10 11 -10 2 0 4 5 4 10 0 6 -5 10 -11 10 -5 0 -7
-4 -4 -10z"/>
<path d="M6250 480 c0 -4 7 -7 15 -6 23 3 26 12 5 13 -11 1 -20 -2 -20 -7z"/>
<path d="M6219 468 c-5 -14 -4 -56 2 -53 4 3 6 13 5 23 -2 9 2 20 8 24 8 5 7
8 -1 8 -7 0 -13 -1 -14 -2z"/>
<path d="M793 445 c0 -8 4 -12 9 -9 4 3 8 0 8 -7 0 -7 2 -10 5 -7 7 7 -5 38
-14 38 -4 0 -8 -7 -8 -15z"/>
<path d="M950 440 c0 -5 5 -10 10 -10 6 0 10 5 10 10 0 6 -4 10 -10 10 -5 0
-10 -4 -10 -10z"/>
<path d="M980 443 c0 -6 8 -17 18 -24 16 -13 16 -13 2 6 -8 11 -16 22 -17 24
-2 2 -3 0 -3 -6z"/>
<path d="M1037 413 c-10 -9 -9 -23 1 -23 5 0 9 7 9 15 0 17 -1 18 -10 8z"/>
<path d="M5933 394 c1 -20 3 -21 22 -8 12 8 24 13 26 12 2 -2 1 1 -3 6 -4 5
-13 4 -22 -3 -11 -9 -15 -9 -19 1 -3 7 -5 3 -4 -8z"/>
<path d="M1124 386 c-5 -14 -9 -15 -16 -4 -8 10 -9 10 -5 -2 2 -8 12 -15 23
-15 10 0 25 -4 32 -8 18 -12 15 1 -8 25 -18 19 -20 20 -26 4z"/>
<path d="M6070 391 c0 -5 7 -11 14 -14 10 -4 13 -1 9 9 -6 15 -23 19 -23 5z"/>
<path d="M900 366 c0 -2 8 -10 18 -17 15 -13 16 -12 3 4 -13 16 -21 21 -21 13z"/>
<path d="M5786 353 c-6 -14 -5 -15 5 -6 7 7 10 15 7 18 -3 3 -9 -2 -12 -12z"/>
<path d="M6050 362 c0 -4 10 -9 22 -9 18 -2 20 0 8 7 -18 12 -30 13 -30 2z"/>
<path d="M1235 341 c6 -11 -13 -25 -34 -26 -8 0 -15 -13 -16 -30 -2 -16 -1
-24 2 -17 3 6 10 9 15 6 6 -4 8 -2 5 3 -4 6 1 17 10 24 15 12 16 12 10 -4 -5
-13 -3 -16 6 -11 33 19 36 25 24 45 -6 10 -15 19 -20 19 -4 0 -6 -4 -2 -9z
m19 -32 c-3 -5 -10 -7 -15 -3 -5 3 -7 10 -3 15 3 5 10 7 15 3 5 -3 7 -10 3
-15z"/>
<path d="M5642 338 c-16 -16 -15 -25 1 -25 7 0 14 9 14 19 2 21 1 22 -15 6z"/>
<path d="M5670 340 c0 -5 5 -10 11 -10 5 0 7 5 4 10 -3 6 -8 10 -11 10 -2 0
-4 -4 -4 -10z"/>
<path d="M5700 338 c0 -14 16 -16 33 -3 17 12 16 13 -7 11 -15 0 -26 -4 -26
-8z"/>
<path d="M1828 317 c-3 -18 0 -24 11 -23 10 1 16 -7 16 -21 0 -11 3 -25 8 -29
4 -4 7 -2 7 5 0 7 5 9 10 6 6 -4 8 -10 5 -15 -3 -5 -1 -11 4 -15 6 -3 8 6 5
21 -3 19 -1 24 8 18 7 -5 20 -9 28 -11 8 -1 16 -7 18 -12 2 -6 8 -11 14 -11 6
0 6 6 -2 15 -15 18 -7 19 22 4 12 -6 18 -7 14 -1 -3 5 1 12 9 16 8 3 17 1 20
-4 3 -4 0 -10 -6 -12 -7 -2 -5 -9 5 -17 14 -12 16 -12 10 3 -3 9 -2 16 4 16 5
0 12 -9 15 -21 5 -18 8 -19 26 -7 11 7 18 14 16 17 -3 2 -11 -2 -20 -9 -8 -7
-15 -8 -15 -2 0 5 6 15 14 21 11 9 17 8 29 -4 21 -20 33 -19 16 2 -12 15 -12
16 6 9 11 -4 25 -9 31 -10 23 -4 43 -28 38 -44 -5 -15 -4 -14 6 1 6 9 15 15
20 12 5 -3 11 -1 15 5 4 6 11 8 16 4 5 -3 6 -10 3 -16 -4 -7 -2 -8 5 -4 8 6 9
12 2 20 -11 13 -5 26 11 26 5 0 6 -4 3 -10 -4 -6 1 -7 12 -3 16 6 16 5 4 -10
-19 -24 -6 -21 18 4 12 13 21 17 26 10 3 -6 12 -11 18 -11 7 0 4 5 -5 11 -10
5 -18 15 -18 21 0 7 4 7 13 -1 17 -13 28 -5 20 16 -5 12 -7 12 -14 1 -7 -10
-9 -10 -9 2 0 12 -2 12 -9 2 -7 -11 -9 -11 -14 1 -4 11 0 15 14 12 16 -3 19 0
13 17 -5 18 -4 19 8 7 15 -13 18 -25 19 -66 1 -12 8 -24 17 -28 12 -4 13 -3 2
10 -7 8 -9 15 -4 15 14 0 36 -16 35 -25 -1 -5 6 -10 14 -11 14 -2 14 0 3 13
-11 14 -10 15 10 9 13 -4 22 -3 22 3 0 6 17 1 37 -11 20 -12 34 -17 30 -11 -4
6 1 17 10 24 14 12 15 11 10 -11 -4 -14 -4 -19 -1 -13 4 10 11 10 27 2 21 -10
21 -10 3 5 -11 9 -17 19 -13 22 4 4 14 1 24 -7 11 -9 14 -10 9 -2 -4 7 -3 13
2 13 16 0 22 -13 11 -27 -9 -9 -8 -13 0 -13 6 0 11 5 11 11 0 5 5 7 10 4 6 -3
10 -1 10 4 0 6 -5 11 -11 11 -5 0 -7 5 -3 12 4 7 3 8 -4 4 -15 -9 -15 -1 -2
25 8 15 7 21 -5 25 -8 3 -12 10 -9 15 3 5 -1 10 -8 10 -7 1 -23 3 -35 4 -16 2
-23 -3 -23 -15 0 -10 -7 -23 -15 -30 -8 -7 -15 -9 -15 -5 0 4 -7 2 -15 -5 -10
-9 -15 -9 -16 -1 -1 6 -2 15 -3 20 -3 22 -25 34 -39 23 -8 -7 -17 -9 -20 -5
-4 3 -9 -1 -13 -10 -5 -13 -9 -14 -24 -5 -10 7 -16 16 -14 20 3 4 -1 9 -8 9
-7 1 -23 3 -35 4 -15 1 -23 -3 -23 -14 -1 -21 -30 -61 -30 -40 0 11 -2 12 -9
0 -7 -11 -10 -11 -17 0 -5 8 -9 20 -11 28 -3 24 -20 34 -38 24 -9 -6 -16 -13
-16 -16 3 -25 0 -29 -13 -18 -8 7 -17 8 -20 3 -6 -11 -61 -9 -89 3 -14 6 -15
10 -6 21 6 8 8 14 3 14 -13 0 -36 -16 -35 -24 3 -24 0 -28 -12 -17 -8 6 -17 8
-21 4 -12 -12 -105 -11 -103 1 1 6 -4 10 -12 8 -7 -2 -21 4 -31 13 -16 15 -18
14 -22 -8z m406 -10 c1 -8 8 -22 15 -31 12 -14 11 -19 -4 -36 -10 -11 -20 -18
-23 -15 -3 3 3 15 14 27 10 12 13 18 5 13 -10 -6 -12 -4 -6 5 6 9 4 11 -5 5
-8 -5 -11 -4 -7 2 3 5 0 10 -8 10 -13 0 -12 -4 2 -19 17 -19 15 -22 -11 -12
-9 3 -14 9 -11 13 2 4 -2 8 -10 8 -11 0 -12 -3 -3 -14 9 -12 6 -13 -18 -8 -48
11 -78 12 -91 2 -8 -6 -21 -4 -36 6 -13 8 -29 12 -38 7 -20 -10 -89 -7 -90 5
0 5 4 11 10 13 6 2 11 -1 11 -7 0 -6 5 -11 11 -11 5 0 8 4 5 8 -2 4 4 8 14 8
10 0 16 -4 14 -8 -3 -4 -1 -8 4 -8 6 0 13 7 16 16 5 13 9 14 20 5 9 -8 16 -8
20 -2 8 12 50 5 54 -9 2 -5 8 -10 13 -10 6 0 8 4 5 8 -2 4 4 8 14 8 10 0 16
-4 14 -8 -3 -4 -1 -8 4 -8 6 0 13 7 16 16 5 13 9 14 20 5 10 -8 16 -9 21 -1 3
6 10 8 15 5 5 -3 11 -1 15 5 3 5 1 10 -5 10 -6 0 -8 5 -5 11 8 12 16 7 19 -14z
m381 -5 c11 -6 14 -12 7 -12 -7 0 -11 -4 -7 -9 7 -12 -14 -25 -41 -26 -11 0
-28 -6 -37 -13 -20 -17 -53 -1 -62 29 -6 17 -9 19 -16 8 -7 -12 -9 -12 -9 0 0
10 -3 11 -13 2 -8 -6 -16 -8 -19 -5 -3 3 -9 1 -12 -4 -3 -5 11 -8 30 -7 21 2
34 -1 31 -8 -2 -6 -13 -11 -25 -12 -26 -2 -65 22 -57 35 3 4 -1 11 -7 13 -9 4
-10 6 -1 6 6 1 15 -4 18 -9 5 -8 11 -7 21 1 8 6 14 8 14 3 0 -4 6 1 14 11 13
19 15 18 32 -18 14 -30 20 -34 27 -22 4 8 12 13 16 10 5 -2 14 2 21 9 6 8 20
13 31 11 16 -3 19 0 14 18 -4 12 -3 17 2 11 4 -6 17 -16 28 -22z m-754 1 c13
-16 12 -17 -3 -4 -17 13 -22 21 -14 21 2 0 10 -8 17 -17z m29 -22 c0 -5 -7
-12 -16 -15 -14 -5 -15 -4 -4 9 14 17 20 19 20 6z m423 -32 c-5 -5 -17 -3 -29
7 -10 8 -13 13 -6 9 7 -3 15 1 19 10 6 16 7 16 16 0 5 -10 5 -21 0 -26z m-103
-15 c0 -8 -4 -12 -10 -9 -5 3 -10 10 -10 16 0 5 5 9 10 9 6 0 10 -7 10 -16z"/>
<path d="M2033 277 c-3 -7 -3 -9 2 -5 4 4 14 3 21 -3 8 -7 14 -7 19 1 3 5 5
10 3 11 -27 6 -39 5 -45 -4z"/>
<path d="M2599 298 c-5 -18 -6 -38 -1 -34 7 8 12 36 6 36 -2 0 -4 -1 -5 -2z"/>
<path d="M2540 275 c-7 -8 -16 -13 -19 -10 -4 2 -8 -2 -8 -9 0 -11 4 -12 18
-3 10 6 21 17 23 24 7 17 1 16 -14 -2z"/>
<path d="M2566 273 c-6 -14 -5 -15 5 -6 7 7 10 15 7 18 -3 3 -9 -2 -12 -12z"/>
<path d="M2790 322 c0 -12 4 -22 9 -22 10 0 9 26 -2 36 -4 4 -7 -2 -7 -14z"/>
<path d="M3267 315 c-3 -17 1 -22 12 -20 9 1 21 -1 26 -5 6 -5 19 -2 29 6 11
8 14 14 7 14 -7 0 -9 5 -6 10 3 6 0 11 -7 11 -7 1 -23 3 -35 4 -15 2 -22 -4
-26 -20z m56 -19 c-3 -4 -9 -2 -14 5 -13 22 -11 31 5 17 8 -7 12 -17 9 -22z"/>
<path d="M3748 316 c-4 -17 -1 -23 8 -19 8 3 17 -2 20 -11 6 -16 8 -16 25 0
18 17 17 40 -2 28 -6 -3 -18 1 -28 10 -17 16 -19 15 -23 -8z m33 -13 c13 -16
12 -17 -3 -4 -17 13 -22 21 -14 21 2 0 10 -8 17 -17z"/>
<path d="M4109 324 c-13 -7 -18 -13 -11 -14 7 0 10 -4 7 -10 -3 -6 1 -7 9 -4
9 3 16 14 16 23 0 14 2 14 10 1 5 -8 10 -10 10 -5 0 6 7 1 16 -10 18 -25 23
-25 36 -1 10 18 12 18 23 2 7 -9 16 -13 19 -8 3 5 -1 15 -9 22 -12 10 -18 10
-32 -1 -18 -16 -23 -16 -34 2 -11 18 -31 19 -60 3z"/>
<path d="M4749 324 c-13 -7 -18 -13 -11 -14 7 0 10 -4 7 -10 -3 -6 1 -7 9 -4
9 3 16 14 16 23 0 14 2 14 10 1 5 -8 10 -10 10 -5 0 6 7 1 16 -10 18 -25 23
-25 36 -1 10 18 12 18 23 2 7 -9 16 -13 19 -8 3 5 -1 15 -9 22 -12 10 -18 10
-32 -1 -18 -16 -23 -16 -34 2 -11 18 -31 19 -60 3z"/>
<path d="M6053 325 c0 -8 4 -12 9 -9 5 3 6 10 3 15 -9 13 -12 11 -12 -6z"/>
<path d="M2689 328 c-6 -18 -3 -46 3 -42 5 4 7 13 4 23 -4 9 3 5 13 -9 19 -24
25 -10 8 18 -7 10 -25 17 -28 10z"/>
<path d="M3193 311 c0 -11 5 -18 9 -15 4 3 5 11 1 19 -7 21 -12 19 -10 -4z"/>
<path d="M3406 322 c-2 -4 0 -14 6 -22 8 -12 9 -11 4 5 -6 19 -5 19 7 3 8 -10
17 -15 20 -11 8 7 -11 33 -24 33 -4 0 -10 -4 -13 -8z"/>
<path d="M2836 312 c-11 -18 2 -31 26 -27 26 5 32 11 19 20 -6 3 -11 1 -11 -6
0 -7 -6 -5 -13 6 -10 12 -16 14 -21 7z"/>
<path d="M1110 301 c0 -10 29 -36 34 -30 1 2 -6 12 -16 22 -10 9 -18 13 -18 8z"/>
<path d="M6010 299 c0 -5 5 -7 10 -4 6 3 10 8 10 11 0 2 -4 4 -10 4 -5 0 -10
-5 -10 -11z"/>
<path d="M5975 291 c-3 -5 -2 -12 3 -15 5 -3 9 1 9 9 0 17 -3 19 -12 6z"/>
<path d="M1070 281 c0 -6 4 -13 10 -16 6 -3 7 1 4 9 -7 18 -14 21 -14 7z"/>
<path d="M1219 268 c0 -2 -2 -13 -3 -25 -2 -19 0 -21 12 -11 9 8 10 14 3 16
-6 2 -9 8 -5 13 3 5 3 9 0 9 -3 0 -6 -1 -7 -2z"/>
<path d="M1310 259 c0 -5 5 -7 10 -4 10 6 14 -6 11 -35 -2 -13 0 -13 8 -1 6
10 6 21 0 33 -11 20 -29 24 -29 7z"/>
<path d="M5810 260 c0 -5 5 -10 11 -10 5 0 7 5 4 10 -3 6 -8 10 -11 10 -2 0
-4 -4 -4 -10z"/>
<path d="M5691 244 c0 -11 3 -14 6 -6 3 7 2 16 -1 19 -3 4 -6 -2 -5 -13z"/>
<path d="M5748 253 c7 -3 16 -2 19 1 4 3 -2 6 -13 5 -11 0 -14 -3 -6 -6z"/>
<path d="M5839 233 c-13 -16 -12 -17 4 -4 16 13 21 21 13 21 -2 0 -10 -8 -17
-17z"/>
<path d="M1910 230 c0 -5 7 -7 15 -4 8 4 15 8 15 10 0 2 -7 4 -15 4 -8 0 -15
-4 -15 -10z"/>
<path d="M3830 230 c0 -5 6 -10 14 -10 8 0 12 -9 10 -26 -1 -14 0 -23 4 -20
13 14 8 48 -10 57 -12 6 -18 6 -18 -1z"/>
<path d="M5510 236 c0 -2 7 -9 15 -16 13 -11 14 -10 9 4 -5 14 -24 23 -24 12z"/>
<path d="M1240 220 c-9 -6 -10 -10 -3 -10 6 0 15 5 18 10 8 12 4 12 -15 0z"/>
<path d="M1399 228 c-5 -18 -6 -38 -1 -34 7 8 12 36 6 36 -2 0 -4 -1 -5 -2z"/>
<path d="M1456 221 c-3 -5 1 -14 8 -20 10 -9 16 -9 21 -1 4 6 4 14 1 17 -3 4
-6 1 -6 -6 0 -7 -5 -9 -10 -6 -6 4 -8 11 -5 16 4 5 4 9 1 9 -3 0 -7 -4 -10 -9z"/>
<path d="M1750 225 c0 -5 5 -17 10 -25 5 -8 10 -10 10 -5 0 6 -5 17 -10 25 -5
8 -10 11 -10 5z"/>
<path d="M1973 214 c-3 -8 -3 -18 1 -21 3 -4 6 1 6 10 0 11 7 15 21 12 12 -3
19 -1 15 2 -13 13 -37 11 -43 -3z"/>
<path d="M2133 214 c-3 -8 -3 -18 1 -21 3 -4 6 1 6 10 0 11 7 15 21 12 12 -3
19 -1 15 2 -13 13 -37 11 -43 -3z"/>
<path d="M2332 215 c15 -16 20 -17 30 -6 11 11 10 13 0 7 -7 -4 -21 -2 -30 5
-15 12 -15 11 0 -6z"/>
<path d="M2933 214 c-3 -8 -3 -18 1 -21 3 -4 6 1 6 10 0 11 7 15 21 12 12 -3
19 -1 15 2 -13 13 -37 11 -43 -3z"/>
<path d="M3093 214 c-3 -8 -3 -18 1 -21 3 -4 6 1 6 10 0 11 7 15 21 12 12 -3
19 -1 15 2 -13 13 -37 11 -43 -3z"/>
<path d="M3894 222 c3 -5 0 -12 -6 -15 -7 -2 -10 -7 -7 -11 3 -4 12 0 18 8 9
11 9 16 0 22 -7 4 -9 3 -5 -4z"/>
<path d="M3935 219 c-4 -6 -5 -12 -2 -15 2 -3 7 2 10 11 7 17 1 20 -8 4z"/>
<path d="M3975 221 c-3 -5 0 -13 6 -17 7 -4 9 -3 5 4 -3 5 0 13 6 15 9 4 10 6
1 6 -6 1 -14 -3 -18 -8z"/>
<path d="M4099 228 c-6 -21 -5 -37 2 -32 5 3 6 10 3 16 -5 7 -1 9 9 5 10 -3
17 -2 17 3 0 8 -28 15 -31 8z"/>
<path d="M4467 206 c-11 -16 -13 -27 -7 -31 6 -4 10 -3 9 2 -3 12 12 43 21 43
4 0 6 -11 5 -25 -2 -14 0 -23 4 -20 11 6 6 48 -6 52 -6 2 -18 -7 -26 -21z"/>
<path d="M4534 222 c3 -5 0 -12 -6 -15 -7 -2 -10 -7 -7 -11 3 -4 12 0 18 8 9
11 9 16 0 22 -7 4 -9 3 -5 -4z"/>
<path d="M4575 219 c-4 -6 -5 -12 -2 -15 2 -3 7 2 10 11 7 17 1 20 -8 4z"/>
<path d="M4615 221 c-3 -5 0 -13 6 -17 7 -4 9 -3 5 4 -3 5 0 13 6 15 9 4 10 6
1 6 -6 1 -14 -3 -18 -8z"/>
<path d="M4739 228 c-6 -21 -5 -37 2 -32 5 3 6 10 3 16 -5 7 -1 9 9 5 10 -3
17 -2 17 3 0 8 -28 15 -31 8z"/>
<path d="M5107 206 c-11 -16 -13 -27 -7 -31 6 -4 10 -3 9 2 -3 12 12 43 21 43
4 0 6 -11 5 -25 -2 -14 0 -23 4 -20 11 6 6 48 -6 52 -6 2 -18 -7 -26 -21z"/>
<path d="M5174 222 c3 -5 0 -12 -6 -15 -7 -2 -10 -7 -7 -11 3 -4 12 0 18 8 9
11 9 16 0 22 -7 4 -9 3 -5 -4z"/>
<path d="M5215 219 c-4 -6 -5 -12 -2 -15 2 -3 7 2 10 11 7 17 1 20 -8 4z"/>
<path d="M5255 221 c-3 -5 0 -13 6 -17 7 -4 9 -3 5 4 -3 5 0 13 6 15 9 4 10 6
1 6 -6 1 -14 -3 -18 -8z"/>
<path d="M5466 221 c-4 -5 3 -7 16 -3 14 3 19 1 14 -6 -3 -6 -2 -13 3 -16 5
-4 8 2 7 11 -3 20 -31 30 -40 14z"/>
<path d="M5592 221 c-11 -7 -10 -9 3 -14 9 -4 14 -3 10 2 -3 5 1 12 7 14 7 3
9 6 3 6 -5 0 -16 -3 -23 -8z"/>
<path d="M5700 220 c-9 -6 -10 -10 -3 -10 6 0 15 5 18 10 8 12 4 12 -15 0z"/>
<path d="M5790 226 c0 -2 7 -7 16 -10 8 -3 12 -2 9 4 -6 10 -25 14 -25 6z"/>
<path d="M1548 213 c7 -3 16 -2 19 1 4 3 -2 6 -13 5 -11 0 -14 -3 -6 -6z"/>
<path d="M1588 213 c7 -3 16 -2 19 1 4 3 -2 6 -13 5 -11 0 -14 -3 -6 -6z"/>
<path d="M1628 213 c6 -2 18 -2 25 0 6 3 1 5 -13 5 -14 0 -19 -2 -12 -5z"/>
<path d="M1711 204 c0 -11 3 -14 6 -6 3 7 2 16 -1 19 -3 4 -6 -2 -5 -13z"/>
<path d="M1930 210 c-9 -6 -10 -10 -3 -10 6 0 15 5 18 10 8 12 4 12 -15 0z"/>
<path d="M2090 210 c-9 -6 -10 -10 -3 -10 6 0 15 5 18 10 8 12 4 12 -15 0z"/>
<path d="M2468 213 c7 -3 16 -2 19 1 4 3 -2 6 -13 5 -11 0 -14 -3 -6 -6z"/>
<path d="M2831 211 c-8 -5 -9 -11 -3 -15 5 -3 12 1 16 9 6 17 6 18 -13 6z"/>
<path d="M2861 198 c-8 -12 -7 -19 1 -24 7 -4 8 -3 4 4 -4 8 3 16 18 22 31 11
33 16 7 16 -10 0 -24 -8 -30 -18z"/>
<path d="M3050 210 c-9 -6 -10 -10 -3 -10 6 0 15 5 18 10 8 12 4 12 -15 0z"/>
<path d="M3268 213 c7 -3 16 -2 19 1 4 3 -2 6 -13 5 -11 0 -14 -3 -6 -6z"/>
<path d="M3588 213 c7 -3 16 -2 19 1 4 3 -2 6 -13 5 -11 0 -14 -3 -6 -6z"/>
<path d="M4431 211 c-8 -5 -9 -11 -3 -15 5 -3 12 1 16 9 6 17 6 18 -13 6z"/>
<path d="M5071 211 c-8 -5 -9 -11 -3 -15 5 -3 12 1 16 9 6 17 6 18 -13 6z"/>
<path d="M2030 199 c0 -5 5 -7 10 -4 6 3 10 8 10 11 0 2 -4 4 -10 4 -5 0 -10
-5 -10 -11z"/>
<path d="M2381 196 c-9 -11 -9 -16 0 -22 7 -4 9 -3 5 4 -3 6 2 15 11 21 10 6
13 11 7 11 -6 0 -17 -6 -23 -14z"/>
<path d="M2656 198 c3 -5 10 -6 15 -3 13 9 11 12 -6 12 -8 0 -12 -4 -9 -9z"/>
<path d="M2990 199 c0 -5 5 -7 10 -4 6 3 10 8 10 11 0 2 -4 4 -10 4 -5 0 -10
-5 -10 -11z"/>
<path d="M3346 202 c-3 -5 1 -9 9 -9 8 0 15 4 15 9 0 4 -4 8 -9 8 -6 0 -12 -4
-15 -8z"/>
<path d="M3666 202 c-3 -5 1 -9 9 -9 8 0 15 4 15 9 0 4 -4 8 -9 8 -6 0 -12 -4
-15 -8z"/>
<path d="M4150 198 c0 -4 4 -8 9 -8 6 0 12 4 15 8 3 5 -1 9 -9 9 -8 0 -15 -4
-15 -9z"/>
<path d="M4256 198 c3 -5 10 -6 15 -3 13 9 11 12 -6 12 -8 0 -12 -4 -9 -9z"/>
<path d="M4790 198 c0 -4 4 -8 9 -8 6 0 12 4 15 8 3 5 -1 9 -9 9 -8 0 -15 -4
-15 -9z"/>
<path d="M4896 198 c3 -5 10 -6 15 -3 13 9 11 12 -6 12 -8 0 -12 -4 -9 -9z"/>
<path d="M5286 202 c-2 -4 7 -8 20 -8 13 -1 24 1 24 5 0 9 -38 12 -44 3z"/>
<path d="M1520 180 c-9 -6 -10 -10 -3 -10 6 0 15 5 18 10 8 12 4 12 -15 0z"/>
<path d="M1660 186 c0 -2 8 -10 18 -17 15 -13 16 -12 3 4 -13 16 -21 21 -21
13z"/>
<path d="M1907 179 c7 -7 15 -10 18 -7 3 3 -2 9 -12 12 -14 6 -15 5 -6 -5z"/>
<path d="M2430 176 c7 -7 13 -7 20 0 6 6 3 10 -10 10 -13 0 -16 -4 -10 -10z"/>
<path d="M3507 179 c7 -7 15 -10 18 -7 3 3 -2 9 -12 12 -14 6 -15 5 -6 -5z"/>
<path d="M3930 179 c0 -5 5 -7 10 -4 6 3 10 8 10 11 0 2 -4 4 -10 4 -5 0 -10
-5 -10 -11z"/>
<path d="M4570 179 c0 -5 5 -7 10 -4 6 3 10 8 10 11 0 2 -4 4 -10 4 -5 0 -10
-5 -10 -11z"/>
<path d="M5210 179 c0 -5 5 -7 10 -4 6 3 10 8 10 11 0 2 -4 4 -10 4 -5 0 -10
-5 -10 -11z"/>
<path d="M2035 171 c-3 -5 -2 -12 3 -15 5 -3 9 1 9 9 0 17 -3 19 -12 6z"/>
<path d="M2195 171 c-3 -5 -2 -12 3 -15 5 -3 9 1 9 9 0 17 -3 19 -12 6z"/>
<path d="M2995 171 c-3 -5 -2 -12 3 -15 5 -3 9 1 9 9 0 17 -3 19 -12 6z"/>
<path d="M3155 171 c-3 -5 -2 -12 3 -15 5 -3 9 1 9 9 0 17 -3 19 -12 6z"/>
</g>
</svg>
