<?xml version="1.0" encoding="UTF-8"?>
<svg width="12px" height="15px" viewBox="0 0 12 15" version="1.1" xmlns="http://www.w3.org/2000/svg" xmlns:xlink="http://www.w3.org/1999/xlink">
    <title></title>
    <g id="Symbols" stroke="none" stroke-width="1" fill="none" fill-rule="evenodd">
        <path d="M6.08802734,3.35349609 C6.74394531,3.35349609 7.56615234,2.91005859 8.05578125,2.31880859 C8.49921875,1.78298828 8.82255859,1.0346875 8.82255859,0.286386719 C8.82255859,0.184765625 8.81332031,0.0831445312 8.79484375,0 C8.06501953,0.0277148438 7.18738281,0.489628906 6.66080078,1.10859375 C6.24507813,1.57974609 5.86630859,2.31880859 5.86630859,3.07634766 C5.86630859,3.18720703 5.88478516,3.29806641 5.89402344,3.33501953 C5.94021484,3.34425781 6.01412109,3.35349609 6.08802734,3.35349609 Z M3.77845703,14.5318164 C4.67457031,14.5318164 5.07181641,13.9313281 6.18964844,13.9313281 C7.32595703,13.9313281 7.57539063,14.5133398 8.573125,14.5133398 C9.55238281,14.5133398 10.2083008,13.6079883 10.8272656,12.7211133 C11.5201367,11.7049023 11.8065234,10.707168 11.825,10.6609766 C11.760332,10.6425 9.88496094,9.87572266 9.88496094,7.72320313 C9.88496094,5.85707031 11.3630859,5.01638672 11.4462305,4.95171875 C10.4669727,3.5475 8.97960938,3.51054688 8.573125,3.51054688 C7.47376953,3.51054688 6.57765625,4.17570313 6.01412109,4.17570313 C5.40439453,4.17570313 4.60066406,3.5475 3.64912109,3.5475 C1.83841797,3.5475 3.41060513e-13,5.04410156 3.41060513e-13,7.87101563 C3.41060513e-13,9.62628906 0.683632813,11.4831836 1.52431641,12.6841602 C2.24490234,13.7003711 2.87310547,14.5318164 3.77845703,14.5318164 Z" id="" fill="#FFFFFF" fill-rule="nonzero"></path>
    </g>
</svg>