<?xml version="1.0" encoding="UTF-8"?>
<svg width="12px" height="15px" viewBox="0 0 12 15" version="1.1" xmlns="http://www.w3.org/2000/svg" xmlns:xlink="http://www.w3.org/1999/xlink">
    <title>Tech/Apple ID/Logos (for Left-Algined Button)/Black Logo/Small</title>
    <g id="Library-Preview" stroke="none" stroke-width="1" fill="none" fill-rule="evenodd">
        <g id="Group" transform="translate(-1.000000, 0.000000)" fill="#000000" fill-rule="nonzero">
            <g id="Tech/Apple-ID/Logos-(for-Left-Algined-Button)/Black-Logo/Small">
                <path d="M7.20948632,3.68772638 C7.86540429,3.68772638 8.68761132,3.24428888 9.17724022,2.65303888 C9.62067772,2.11721857 9.94401757,1.36891779 9.94401757,0.62061701 C9.94401757,0.518995916 9.93477929,0.417374822 9.91630272,0.334230291 C9.1864785,0.361945135 8.30884179,0.823859197 7.78225975,1.44282404 C7.3665371,1.91397638 6.98776757,2.65303888 6.98776757,3.41057795 C6.98776757,3.52143732 7.00624413,3.6322967 7.01548241,3.66924982 C7.06167382,3.6784881 7.13558007,3.68772638 7.20948632,3.68772638 Z M4.899916,14.8660467 C5.79602929,14.8660467 6.19327538,14.2655584 7.31110741,14.2655584 C8.447416,14.2655584 8.6968496,14.8475701 9.69458397,14.8475701 C10.6738418,14.8475701 11.3297598,13.9422186 11.9487246,13.0553436 C12.6415957,12.0391326 12.9279824,11.0413983 12.946459,10.9952069 C12.881791,10.9767303 11.0064199,10.2099529 11.0064199,8.05743342 C11.0064199,6.1913006 12.4845449,5.35061701 12.5676894,5.28594904 C11.5884316,3.88173029 10.1010683,3.84477717 9.69458397,3.84477717 C8.5952285,3.84477717 7.69911522,4.50993342 7.13558007,4.50993342 C6.5258535,4.50993342 5.72212304,3.88173029 4.77058007,3.88173029 C2.95987694,3.88173029 1.12145897,5.37833185 1.12145897,8.20524592 C1.12145897,9.96051935 1.80509179,11.8174139 2.64577538,13.0183904 C3.36636132,14.0346014 3.99456444,14.8660467 4.899916,14.8660467 Z" id=""></path>
            </g>
        </g>
    </g>
</svg>